<svg xmlns="http://www.w3.org/2000/svg" xmlns:xlink="http://www.w3.org/1999/xlink" viewBox="0 0 2031.15 1977.72"><defs><style>.cls-1{isolation:isolate;}.cls-2{fill:#838dc6;}.cls-3{fill:#643c8d;}.cls-14,.cls-18,.cls-19,.cls-20,.cls-23,.cls-24,.cls-25,.cls-26,.cls-29,.cls-30,.cls-31,.cls-4,.cls-7{mix-blend-mode:multiply;}.cls-4{fill:url(#linear-gradient);}.cls-5{fill:#332150;}.cls-35,.cls-6{fill:#fff;}.cls-16,.cls-20,.cls-23,.cls-24,.cls-25,.cls-26,.cls-29,.cls-30,.cls-31,.cls-7{opacity:0.3;}.cls-7{fill:url(#linear-gradient-2);}.cls-8{fill:#f9c1cf;}.cls-9{fill:#f1bad1;}.cls-10{fill:url(#linear-gradient-3);}.cls-11{fill:#f05673;}.cls-12{fill:url(#linear-gradient-4);}.cls-13,.cls-14{fill:#a63878;}.cls-15{fill:url(#linear-gradient-5);}.cls-16{mix-blend-mode:screen;fill:url(#linear-gradient-6);}.cls-17,.cls-19{fill:#f9c2d0;}.cls-18{fill:url(#linear-gradient-7);}.cls-21,.cls-22,.cls-31,.cls-35,.cls-37{fill-rule:evenodd;}.cls-21{fill:url(#linear-gradient-8);}.cls-22{fill:url(#linear-gradient-9);}.cls-23{fill:url(#linear-gradient-10);}.cls-24{fill:url(#linear-gradient-11);}.cls-25{fill:url(#linear-gradient-12);}.cls-26{fill:url(#linear-gradient-13);}.cls-27{fill:#4d3587;}.cls-28{fill:url(#linear-gradient-14);}.cls-29{fill:url(#linear-gradient-15);}.cls-30{fill:url(#linear-gradient-16);}.cls-31{fill:url(#linear-gradient-17);}.cls-32{fill:#e8bb20;}.cls-33,.cls-37{fill:#f4cc2f;}.cls-34{fill:#f6da5c;}.cls-36{fill:#b0c6dc;}</style><linearGradient id="linear-gradient" x1="8564.3" y1="1597.8" x2="8564.3" y2="1009.7" gradientTransform="matrix(-1, 0, 0, 1, 8996.34, 0)" gradientUnits="userSpaceOnUse"><stop offset="0" stop-color="#9f6080"/><stop offset="0.13" stop-color="#a26584"/><stop offset="0.3" stop-color="#ab7490"/><stop offset="0.47" stop-color="#ba8ca4"/><stop offset="0.66" stop-color="#cfafbf"/><stop offset="0.86" stop-color="#e9dae2"/><stop offset="1" stop-color="#fff"/></linearGradient><linearGradient id="linear-gradient-2" x1="361.28" y1="669.19" x2="635.58" y2="669.19" gradientUnits="userSpaceOnUse"><stop offset="0" stop-color="#838dc6"/><stop offset="1" stop-color="#fff"/></linearGradient><linearGradient id="linear-gradient-3" x1="250.26" y1="1943.48" x2="121.27" y2="2004.67" gradientTransform="matrix(0.95, 0.31, -0.31, 0.95, 2327.73, -1574.84)" gradientUnits="userSpaceOnUse"><stop offset="0" stop-color="#fce2e9"/><stop offset="1" stop-color="#fff"/></linearGradient><linearGradient id="linear-gradient-4" x1="681.48" y1="1965.84" x2="681.48" y2="1536.67" gradientUnits="userSpaceOnUse"><stop offset="0" stop-color="#575ca9"/><stop offset="1" stop-color="#2a2864"/></linearGradient><linearGradient id="linear-gradient-5" x1="24893.52" y1="1137.14" x2="24893.52" y2="831.11" gradientTransform="matrix(-1, 0, 0, 1, 25622.14, 0)" gradientUnits="userSpaceOnUse"><stop offset="0" stop-color="#3b1d55"/><stop offset="1" stop-color="#872571"/></linearGradient><linearGradient id="linear-gradient-6" x1="25016.83" y1="1159.71" x2="24915.78" y2="933.81" gradientTransform="matrix(-1, 0, 0, 1, 25622.14, 0)" gradientUnits="userSpaceOnUse"><stop offset="0" stop-color="#c365a1"/><stop offset="1" stop-color="#a47b80"/></linearGradient><linearGradient id="linear-gradient-7" x1="25005.81" y1="1541.04" x2="25005.81" y2="1130.08" gradientTransform="matrix(-1, 0, 0, 1, 25622.14, 0)" gradientUnits="userSpaceOnUse"><stop offset="0" stop-color="#fff"/><stop offset="1" stop-color="#a47b80"/></linearGradient><linearGradient id="linear-gradient-8" x1="725.99" y1="401.11" x2="919.08" y2="401.11" xlink:href="#linear-gradient-2"/><linearGradient id="linear-gradient-9" x1="725.99" y1="366.51" x2="919.08" y2="366.51" xlink:href="#linear-gradient-2"/><linearGradient id="linear-gradient-10" x1="1184.85" y1="548.98" x2="1318.84" y2="548.98" xlink:href="#linear-gradient-2"/><linearGradient id="linear-gradient-11" x1="603.92" y1="76.73" x2="780.26" y2="76.73" xlink:href="#linear-gradient-2"/><linearGradient id="linear-gradient-12" x1="1055.66" y1="267.63" x2="1185.45" y2="267.63" xlink:href="#linear-gradient-2"/><linearGradient id="linear-gradient-13" x1="1422.26" y1="796.52" x2="1501.36" y2="796.52" xlink:href="#linear-gradient-2"/><linearGradient id="linear-gradient-14" x1="781.92" y1="1158.37" x2="781.92" y2="829.33" gradientTransform="matrix(1, 0, 0, 1, 0, 0)" xlink:href="#linear-gradient-5"/><linearGradient id="linear-gradient-15" x1="857.95" y1="643.86" x2="1039.93" y2="643.86" xlink:href="#linear-gradient-2"/><linearGradient id="linear-gradient-16" x1="1308.95" y1="1072.79" x2="1491.27" y2="1072.79" xlink:href="#linear-gradient-2"/><linearGradient id="linear-gradient-17" x1="995.29" y1="982.86" x2="1123.75" y2="982.86" xlink:href="#linear-gradient-2"/></defs><g class="cls-1"><g id="Layer_2" data-name="Layer 2"><g id="Layer_1-2" data-name="Layer 1"><path class="cls-2" d="M1724.63,1121.65a54.25,54.25,0,0,1-38.05-62.34,431.61,431.61,0,0,0,12.84-104.69c0-237.82-192.79-430.61-430.61-430.61-212.26,0-388.63,153.58-424.1,355.67-27.5,138.56-160.79,229.9-300.05,205.36a339.47,339.47,0,0,0-63.71-6c-186.73,0-338.11,151.38-338.11,338.11S294.22,1755.24,481,1755.24a336.63,336.63,0,0,0,209.61-72.81c193.86-152.87,474.8-120,628.17,73.31,73,92.92,186.38,152.61,313.71,152.61,220.2,0,398.71-178.51,398.71-398.72C2031.15,1321.16,1900.38,1163.26,1724.63,1121.65Z"/><polygon class="cls-3" points="436.42 1720.91 427.65 1761.72 427.65 1359.17 436.42 1359.17 436.42 1720.91"/><path class="cls-3" d="M236.84,1186.71c0-102.65,86.76-190.85,195.19-190.85s195.2,88.2,195.2,190.85c0,85.11-101.91,75.79-159.36,122.86H396.2C338.74,1262.5,236.84,1271.82,236.84,1186.71Z"/><path class="cls-4" d="M236.84,1186.71c0-102.65,86.76-190.85,195.19-190.85s195.2,88.2,195.2,190.85c0,85.11-101.91,75.79-159.36,122.86H396.2C338.74,1262.5,236.84,1271.82,236.84,1186.71Z"/><path class="cls-5" d="M440.39,1344.65a4.36,4.36,0,0,1-3.95,2.53h0v12h-8.77v-12h0a4.36,4.36,0,0,1-4-2.53,97.7,97.7,0,0,0-27.48-35.08h71.67A97.78,97.78,0,0,0,440.39,1344.65Z"/><path class="cls-3" d="M566.75,1446.49s1.5-50.45,50.34-78.74v17.94c-.91-11.24,8.77-20.89,16.44-27.76,3.41-3,24.11-16.6,23.37-20,0,0,2.56,11.93,2.56,11.93s31.17-29,97.59-32.81C757.05,1317,617.46,1422.63,566.75,1446.49Z"/><path class="cls-3" d="M497,1324.81S407.16,1443,474.43,1499Z"/><path class="cls-3" d="M136.73,1205.38s52.44,3,75.45,31.94l11.08,20.45s-6.82-26.42-4.68-40.91c0,0,5.21,17.87,29.4,33.24,31,19.68,58,35.51,54.58,90.91Z"/><path class="cls-5" d="M274.83,1421.84c113.66,54.92,94.64,167.25,94.61,167.48l1.68-.68s6.23,14.21,14,36.11a692.52,692.52,0,0,1,23.82,82c1.69,7.61,3.16,15.3,4.52,22.86.17,1,.31,1.94.47,2.89q.67,4.26,1.35,8.43.76,5.63,1.49,11.11c.55,4.79,1,9.5,1.4,14.07.21,2.42.39,4.79.53,7.13.17,3.41.37,6.71.47,9.91s.1,6.32.14,9.3c-.1,6-.2,11.48-.59,16.35-.14,3.26-.47,7.32-.77,10,0,.37-.08-.37-.12,0H413.2s0,.71,0,0H398.68c.51-3,1.29-7.65,1.73-11.81.66-4.44,1.08-9.54,1.55-15.12.15-2.8.29-5.71.45-8.75s.1-6.16.19-9.4c0-6.46-.17-13.29-.53-20.39-.23-3.55-.47-7.15-.72-10.78s-.69-7.36-1-11.07c-.81-7.45-1.75-15-2.91-22.55a681,681,0,0,0-18.11-82.27c-3.14-11.09-6-20.27-8.11-26.65s-3.43-10-3.43-10l1.68-.67C343.72,1501.1,274.83,1421.84,274.83,1421.84Z"/><path class="cls-3" d="M317.3,1540.59s44.18,8.42,66.28,41.48c23.15,34.63,19.79,47,17.84,77C401.42,1659.08,377.39,1600.6,317.3,1540.59Z"/><path class="cls-5" d="M434.87,1818.77c0-2.45.06-6.2.27-9.09,0-.31,0-.62,0-.92.06-.78.08-1.55.12-2.35.1-2.06.2-4.22.45-6.44.24-2.93.53-6,.81-9.32,0-.53.1-1.06.15-1.61.42-3.81.89-7.81,1.36-12,.33-3.14.74-6.36,1.18-9.68v0c.74-5.51,1.59-11.24,2.39-17.17,1.28-9.56,3-19.45,4.57-29.79s3.22-20.94,4.87-31.74,3.2-21.8,4.69-32.81c.86-6.17,1.71-12.35,2.51-18.51q.95-7.21,1.81-14.37c.63-5.26,1.31-10.46,2-15.62q1-8.27,2-16.29l3.46-29.85c1-9.5,2-18.49,3-26.77,1.44-13.29,2.64-24.8,3.56-33.84-41.86-52,27.45-186,27.45-186-2,89.88-19.25,164.68-24,183.83-.62,9.4-1.46,21.85-2.51,36.42-.61,8.34-1.26,17.35-1.95,26.89-.66,8.11-1.33,16.62-2,25.38-.12,1.53-.25,3.08-.37,4.63q-.65,8.21-1.41,16.68c-.44,5.08-.91,10.21-1.36,15.39-.92,10.91-2,22-3.12,33.09s-2.18,22.19-3.51,33.09-2.53,21.62-3.75,32-2.55,20.41-3.49,29.85-2,18.37-2.57,26.61c-.32,4.14-.63,8.07-.93,11.82s-.39,7.3-.55,10.63-.17,6.42-.25,9.27-.06,6.41,0,8.69Z"/><path class="cls-5" d="M235.2,1272.69c44.06,28.67,60.33,52.41,66.07,63.84.28.32.56.66.87,1,2.43,2.91,5.87,7.22,10,12.88a432.17,432.17,0,0,1,30.6,49.28c5.67,10.61,11.5,22.25,17.15,34.79s11.2,26,16.43,40,10.26,28.75,14.68,43.87c2.37,7.51,4.31,15.21,6.51,22.88,1.92,7.75,4,15.48,5.77,23.28s3.61,15.6,5.12,23.43c.79,3.92,1.57,7.81,2.36,11.7s1.39,7.79,2.08,11.69c1.49,8.27,2.79,16.51,4,24.65q1.56,10.67,2.85,21.1c1,7.44,1.69,14.8,2.47,22s1.36,14.23,1.91,21.08c.29,3.42.56,6.81.82,10.15l.1,1.25,0,.63v.94l0,2.46c0,1.63,0,3.27,0,4.86q0,3.12.07,6.15c0,3.45.06,6.81.08,10.1,0,.79,0,1.59,0,2.38.14,16,.26,30.26.36,42.1,0,2.57.05,5,.07,7.34.16,15.6.24,27,.28,30.22H413.2s0,.71,0,0c0-1.51,0-5.63.08-10,.1-13,.33-37.76.61-69.65,0-2.18,0-4.38.06-6.63,0-3.91.06-7.91.1-12,0-1.59,0-3.23,0-4.86l0-2.46,0-.64v-.3l-.09-1.2c-.2-3.31-.42-6.67-.63-10.06-.06-1.1-.14-2.2-.2-3.32-.37-5.75-.74-11.6-1.33-17.57-.34-3.71-.65-7.49-1-11.3-.32-3.47-.67-7-1.1-10.5-1.57-14.76-3.5-30-6-45.4-.61-3.84-1.22-7.71-1.86-11.59s-1.4-7.74-2.12-11.62c-1.36-7.79-3-15.51-4.67-23.28s-3.54-15.44-5.3-23.14c-2-7.63-3.83-15.27-6.05-22.76-4.12-15.06-8.93-29.64-13.76-43.69s-10.24-27.38-15.58-39.9-10.95-24.14-16.37-34.72a429,429,0,0,0-29.42-49.26c-4-5.65-7.3-10-9.61-12.84-.81-1-1.49-1.83-2-2.48-8.59-7.16-26.48-21.41-61.86-47.43a895.52,895.52,0,0,1-102.28-88.64C197.69,1207.49,173,1232.2,235.2,1272.69Z"/><path class="cls-3" d="M395.1,1640.35l.93,1.42,2.37,4.39c.88,1.92,1.84,4.25,3,6.94.28.67.58,1.36.88,2.08s.5,1.48.77,2.24q.78,2.32,1.65,4.86c1.16,3.38,2.45,7,3.41,11l3.34,12.41c1.16,4.3,1.92,8.83,2.94,13.39s1.94,9.22,2.91,13.87,1.52,9.35,2.28,14,1.47,9.14,2.17,13.53q.53,3.3,1,6.47c.25,2.12.5,4.2.73,6.22.48,4,.94,7.87,1.36,11.4,1.67,14.12,2.78,23.54,2.78,23.54l-8.32.67s-.74-9.38-1.87-23.45c-.28-3.52-.58-7.33-.9-11.37-.17-2-.33-4.09-.5-6.2s-.51-4.26-.78-6.45c-.53-4.37-1.08-8.9-1.64-13.49s-1.09-9.28-1.72-13.94L409.57,1700c-.83-4.54-1.41-9.08-2.4-13.37s-1.93-8.43-2.82-12.36-1.93-7.6-3-11c-.5-1.68-1-3.3-1.44-4.83-.22-.77-.45-1.52-.66-2.24s-.53-1.39-.79-2c-1-2.64-1.88-5-2.64-6.86s-1.55-3.18-2-4.13-.88-1.45-.88-1.45Z"/><path class="cls-5" d="M416.77,1818.77c.14-2.1.28-5.51.46-8,0-.64.11-1.29.15-2,.08-1,.14-2.08.22-3.16.18-1.78.37-3.63.57-5.59.41-3.87.86-8.07,1.33-12.56.24-2.26.49-4.56.73-7s.69-4.81,1.06-7.32c.33-2.3.65-4.67,1-7.09.41-2.84.82-5.73,1.24-8.71.07-.41.15-.82.23-1.22.24-1.45.51-2.94.77-4.45.66-3.69,1.33-7.5,2-11.4.51-3.14,1.14-6.34,1.8-9.56.28-1.36.59-2.73.89-4.12s.64-3,1-4.48c1.2-5.65,2.43-11.46,3.94-17.33.14-.59.28-1.16.44-1.76a3.92,3.92,0,0,0,.15-.59c.69-2.63,1.34-5.28,2-8,.91-3.73,1.87-7.48,3-11.23,3.73-13.38,8-27.06,12.85-40.8,2.51-6.85,4.85-13.8,7.64-20.61,1.37-3.43,2.72-6.87,4.08-10.3.57-1.45,1.16-2.87,1.8-4.28.83-2,1.71-4,2.54-5.93l4.41-10.18c.65-1.38,1.28-2.75,1.94-4.14.91-2,1.83-3.93,2.75-5.89,3-6.71,6.44-13.19,9.68-19.71s6.77-12.83,10.18-19.09c3.58-6.16,6.95-12.35,10.6-18.25q2.72-4.42,5.36-8.8t5.44-8.51c3.53-5.64,7.32-11,10.83-16.25,7.32-10.39,14.35-20.12,21.25-28.78,10.08-12.89,19.5-23.7,27.37-32.22,15.6-20.33,44.22-51.11,81.41-62.68,0,0-.77,6.43-2.83,18.14,0,0,83.37-54.43,100-68,0,0-70.22,72.68-188.26,130-4.45,5.36-9.15,11.24-14,17.63-6.73,8.71-13.56,18.45-20.66,28.85-3.42,5.28-7.09,10.6-10.52,16.27q-2.62,4.18-5.28,8.5c-1.71,2.92-3.44,5.83-5.18,8.81-3.55,5.87-6.79,12-10.25,18.21-3.29,6.26-6.63,12.58-9.83,19s-6.4,13-9.32,19.65c-1.49,3.33-3,6.67-4.48,10L475,1604.06c-.6,1.44-1.21,2.87-1.8,4.3-.81,1.94-1.61,3.87-2.36,5.85-1.29,3.43-2.59,6.83-3.88,10.24-1.67,4.26-3.18,8.56-4.65,12.84q-1.31,3.86-2.63,7.65c-4.58,13.64-8.62,27.24-12.13,40.49-1.89,6.58-3.26,13.19-4.83,19.59-1.32,5.28-2.38,10.48-3.4,15.62-.23,1.1-.43,2.2-.66,3.28-.63,3.08-1.24,6.1-1.83,9.09v0c-.23,1.12-.43,2.24-.61,3.36-.35,1.83-.66,3.67-.92,5.48q-1.41,8.76-2.73,16.87c0,.34-.08.69-.15,1q-1,7.61-1.85,14.57c-.31,2.35-.59,4.63-.9,6.85a2.23,2.23,0,0,1,0,.39c-.2,2.37-.43,4.65-.63,6.87a.34.34,0,0,1,0,.14q-.58,6.56-1.1,12.28c-.19,1.92-.35,3.75-.51,5.5s-.19,3.45-.27,5c-.12,2.26-.24,5.42-.32,7.34,0,.37-.06-.35-.06,0h-9.48s0,.71,0,0Z"/><path class="cls-5" d="M464.43,1628.93s-56.35,77.82-49.64,253.58h18.78S417.47,1722.85,464.43,1628.93Z"/><path class="cls-3" d="M436,1954.25q0,11.52-.52,23.47H412.69c1.77-47.68.43-242.74-130.71-362.19,1.66,1.14,75.75,52.59,120.55,162v0c3.83,9.36,7.45,19.15,10.79,29.38v0c.69,2.13,1.39,4.3,2.06,6.5v0c.49,1.55,1,3.07,1.41,4.64v0c.07.2.14.38.2.61q5,17,8.94,35.49c1.9,9.14,3.58,18.55,5,28.25A496.53,496.53,0,0,1,436,1954.25Z"/><path class="cls-3" d="M543.09,1857.92c-68.38,38.81-90.26,101.79-95.28,119.8H426.67a214.46,214.46,0,0,1,9.32-23.47c2-4.41,4.21-8.62,6.45-12.66C480.09,1873.77,540.88,1858.45,543.09,1857.92Z"/><path class="cls-3" d="M535.39,1591.56c-1.59,2.18-15.52,21.53-32.16,56.6,0,0,0,0,0,0-27.35,57.63-61.91,157.66-60.79,293.41.09,11.79.45,23.81,1.12,36.13H420.67a682.2,682.2,0,0,1,2.12-95.21c.81-9,1.84-18.5,3.14-28.25,1.34-10.34,3-21,5-32v-.07c1.47-8.28,3.18-16.73,5.08-25.29v0a555.72,555.72,0,0,1,21.05-71.81v0c12.86-34.83,30.06-69.57,52.95-101.71,0,0,0,0,0,0A363.91,363.91,0,0,1,535.39,1591.56Z"/><path class="cls-6" d="M419.12,1818.31a2.49,2.49,0,0,1,2.48-2.51h0a2.5,2.5,0,0,1,2.52,2.48h0a2.51,2.51,0,0,1-2.49,2.52h0A2.5,2.5,0,0,1,419.12,1818.31Zm-15-.07a2.5,2.5,0,0,1,2.52-2.47h0a2.52,2.52,0,0,1,2.48,2.53h0a2.51,2.51,0,0,1-2.53,2.47h0A2.49,2.49,0,0,1,404.12,1818.24Zm30-.1a2.5,2.5,0,0,1,2.44-2.56h0a2.51,2.51,0,0,1,2.56,2.44h0a2.52,2.52,0,0,1-2.45,2.56h-.06A2.49,2.49,0,0,1,434.12,1818.14Zm-42.56,2.36a2.52,2.52,0,0,1-2.44-2.57h0a2.5,2.5,0,0,1,2.57-2.43h0a2.49,2.49,0,0,1,2.43,2.56h0a2.5,2.5,0,0,1-2.5,2.44h-.06Zm57.55-2.79a2.49,2.49,0,0,1,2.4-2.59h0a2.5,2.5,0,0,1,2.6,2.4h0a2.49,2.49,0,0,1-2.4,2.59h-.1A2.5,2.5,0,0,1,449.11,1817.71ZM376.53,1820a2.5,2.5,0,0,1-2.4-2.6h0a2.5,2.5,0,0,1,2.61-2.39h0a2.49,2.49,0,0,1,2.39,2.6h0a2.5,2.5,0,0,1-2.5,2.4h-.1Zm87.56-2.93a2.51,2.51,0,0,1,2.36-2.63h0a2.5,2.5,0,0,1,2.64,2.36h0a2.5,2.5,0,0,1-2.36,2.63h-.15A2.51,2.51,0,0,1,464.09,1817Zm-102.58,2.16a2.5,2.5,0,0,1-2.35-2.64h0a2.5,2.5,0,0,1,2.64-2.35h0a2.51,2.51,0,0,1,2.35,2.65h0a2.51,2.51,0,0,1-2.5,2.35h-.14Zm117.55-3.06a2.5,2.5,0,0,1,2.32-2.67h0a2.51,2.51,0,0,1,2.67,2.32h0a2.49,2.49,0,0,1-2.31,2.67h-.18A2.52,2.52,0,0,1,479.06,1816.14Zm-132.56,2h0a2.49,2.49,0,0,1-2.3-2.68h0a2.48,2.48,0,0,1,2.68-2.3h0a2.48,2.48,0,0,1,2.3,2.68h0a2.5,2.5,0,0,1-2.49,2.31h-.19ZM494,1815a2.5,2.5,0,0,1,2.27-2.71h0a2.49,2.49,0,0,1,2.71,2.27h0a2.5,2.5,0,0,1-2.27,2.71h-.22A2.5,2.5,0,0,1,494,1815Zm-162.51,1.92a2.51,2.51,0,0,1-2.26-2.72h0a2.5,2.5,0,0,1,2.73-2.25h0a2.49,2.49,0,0,1,2.25,2.72h0a2.5,2.5,0,0,1-2.48,2.26h-.24ZM509,1813.6a2.52,2.52,0,0,1,2.23-2.75h0a2.51,2.51,0,0,1,2.75,2.23h0a2.51,2.51,0,0,1-2.23,2.75h-.26A2.51,2.51,0,0,1,509,1813.6Zm-192.4,1.8a2.5,2.5,0,0,1-2.21-2.76h0a2.49,2.49,0,0,1,2.75-2.21h0a2.51,2.51,0,0,1,2.22,2.75h0a2.52,2.52,0,0,1-2.49,2.23h-.27ZM523.86,1812a2.51,2.51,0,0,1,2.19-2.78h0a2.51,2.51,0,0,1,2.78,2.19h0a2.5,2.5,0,0,1-2.19,2.78h0l-.29,0h0A2.52,2.52,0,0,1,523.86,1812Zm-222.25,1.66h0a2.5,2.5,0,0,1-2.17-2.79h0a2.51,2.51,0,0,1,2.8-2.17h0a2.5,2.5,0,0,1,2.17,2.79h0a2.51,2.51,0,0,1-2.48,2.19h0Zm237.14-3.52a2.49,2.49,0,0,1,2.14-2.81h0a2.49,2.49,0,0,1,2.81,2.14h0a2.49,2.49,0,0,1-2.14,2.81h0l-.33,0h0A2.5,2.5,0,0,1,538.75,1810.11Zm-252,1.5a2.49,2.49,0,0,1-2.11-2.83h0a2.5,2.5,0,0,1,2.83-2.12h0a2.52,2.52,0,0,1,2.12,2.83h0a2.51,2.51,0,0,1-2.48,2.15h0A2.19,2.19,0,0,1,286.7,1811.61ZM553.6,1808a2.5,2.5,0,0,1,2.1-2.85h0a2.49,2.49,0,0,1,2.84,2.1h0a2.49,2.49,0,0,1-2.09,2.84h0l-.38,0h0A2.5,2.5,0,0,1,553.6,1808Zm-281.77,1.33h0a2.5,2.5,0,0,1-2.08-2.86h0a2.51,2.51,0,0,1,2.87-2.08h0a2.49,2.49,0,0,1,2.07,2.86h0a2.5,2.5,0,0,1-2.47,2.1h0Zm296.59-3.66a2.5,2.5,0,0,1,2.05-2.88h0a2.5,2.5,0,0,1,2.88,2.06h0a2.49,2.49,0,0,1-2.06,2.87h0a1.84,1.84,0,0,1-.41,0h0A2.5,2.5,0,0,1,568.42,1805.69ZM257,1806.84a2.51,2.51,0,0,1-2-2.9h0a2.5,2.5,0,0,1,2.9-2h0a2.5,2.5,0,0,1,2,2.9h0a2.5,2.5,0,0,1-2.46,2.06h0A2.25,2.25,0,0,1,257,1806.84Zm326.2-3.7a2.5,2.5,0,0,1,2-2.91h0a2.49,2.49,0,0,1,2.9,2h0a2.5,2.5,0,0,1-2,2.91h0a3.73,3.73,0,0,1-.46,0h0A2.5,2.5,0,0,1,583.2,1803.14Zm-341,.94h0a2.51,2.51,0,0,1-2-2.94h0a2.49,2.49,0,0,1,2.93-2h0a2.5,2.5,0,0,1,2,2.93h0a2.51,2.51,0,0,1-2.45,2h0A2.61,2.61,0,0,1,242.22,1804.08Zm355.71-3.72a2.51,2.51,0,0,1,2-2.94h0a2.5,2.5,0,0,1,2.94,2h0a2.5,2.5,0,0,1-2,2.94h0a2.77,2.77,0,0,1-.49,0h0A2.51,2.51,0,0,1,597.93,1800.36Zm-370.45.72a2.5,2.5,0,0,1-1.93-3h0a2.5,2.5,0,0,1,3-1.93h0a2.49,2.49,0,0,1,1.93,3h0a2.51,2.51,0,0,1-2.44,2h0A2.31,2.31,0,0,1,227.48,1801.08Zm385.15-3.72a2.5,2.5,0,0,1,1.92-3h0a2.5,2.5,0,0,1,3,1.92h0a2.5,2.5,0,0,1-1.92,3h0a2.38,2.38,0,0,1-.53,0h0A2.5,2.5,0,0,1,612.63,1797.36Zm-399.84.47h0a2.49,2.49,0,0,1-1.88-3h0a2.5,2.5,0,0,1,3-1.88h0a2.52,2.52,0,0,1,1.88,3h0a2.52,2.52,0,0,1-2.44,1.94h0A2.15,2.15,0,0,1,212.79,1797.83Zm414.49-3.69a2.5,2.5,0,0,1,1.87-3h0a2.5,2.5,0,0,1,3,1.88h0a2.49,2.49,0,0,1-1.88,3h0a2.1,2.1,0,0,1-.56.07h0A2.5,2.5,0,0,1,627.28,1794.14Zm-429.12.2h0a2.5,2.5,0,0,1-1.82-3h0a2.5,2.5,0,0,1,3-1.82h0a2.5,2.5,0,0,1,1.82,3h0a2.51,2.51,0,0,1-2.42,1.9h0A2.47,2.47,0,0,1,198.16,1794.34Zm443.72-3.64a2.51,2.51,0,0,1,1.83-3h0a2.49,2.49,0,0,1,3,1.84h0a2.5,2.5,0,0,1-1.83,3h0a2.46,2.46,0,0,1-.6.07h0A2.49,2.49,0,0,1,641.88,1790.7Zm-458.3-.09a2.5,2.5,0,0,1-1.77-3.06h0a2.49,2.49,0,0,1,3.05-1.77h0a2.51,2.51,0,0,1,1.78,3.06h0a2.51,2.51,0,0,1-2.42,1.86h0A2.87,2.87,0,0,1,183.58,1790.61Zm472.84-3.56a2.52,2.52,0,0,1,1.79-3.06h0a2.5,2.5,0,0,1,3,1.79h0a2.5,2.5,0,0,1-1.78,3h0a2.35,2.35,0,0,1-.64.09h0A2.52,2.52,0,0,1,656.42,1787.05Zm-487.35-.42a2.48,2.48,0,0,1-1.72-3.08h0a2.51,2.51,0,0,1,3.09-1.73h0a2.51,2.51,0,0,1,1.72,3.09h0a2.5,2.5,0,0,1-2.41,1.82h0A2.33,2.33,0,0,1,169.07,1786.63Zm501.85-3.45a2.49,2.49,0,0,1,1.74-3.07h0a2.5,2.5,0,0,1,3.08,1.74h0a2.52,2.52,0,0,1-1.75,3.08h0a2.52,2.52,0,0,1-.67.09h0A2.49,2.49,0,0,1,670.92,1783.18Zm-516.29-.76h0a2.5,2.5,0,0,1-1.67-3.11h0a2.49,2.49,0,0,1,3.11-1.68h0a2.49,2.49,0,0,1,1.68,3.11h0a2.51,2.51,0,0,1-2.4,1.79h0A2.57,2.57,0,0,1,154.63,1782.42Zm530.72-3.31a2.51,2.51,0,0,1,1.7-3.1h0a2.5,2.5,0,0,1,3.1,1.7h0a2.5,2.5,0,0,1-1.69,3.1h0a2.53,2.53,0,0,1-.71.1h0A2.51,2.51,0,0,1,685.35,1779.11ZM140.26,1778a2.5,2.5,0,0,1-1.62-3.14h0a2.5,2.5,0,0,1,3.14-1.62h0a2.5,2.5,0,0,1,1.62,3.14h0a2.48,2.48,0,0,1-2.38,1.74h0A2.56,2.56,0,0,1,140.26,1778Zm559.47-3.12a2.5,2.5,0,0,1,1.65-3.13h0a2.52,2.52,0,0,1,3.13,1.66h0a2.5,2.5,0,0,1-1.66,3.12h0a2.31,2.31,0,0,1-.73.11h0A2.5,2.5,0,0,1,699.73,1774.84ZM126,1773.27a2.49,2.49,0,0,1-1.57-3.16h0a2.5,2.5,0,0,1,3.17-1.57h0a2.49,2.49,0,0,1,1.57,3.16h0a2.51,2.51,0,0,1-2.37,1.71h0A2.45,2.45,0,0,1,126,1773.27ZM714,1770.36a2.5,2.5,0,0,1,1.62-3.14h0a2.5,2.5,0,0,1,3.14,1.61h0a2.49,2.49,0,0,1-1.61,3.15h0a2.53,2.53,0,0,1-.77.12h0A2.51,2.51,0,0,1,714,1770.36Zm-602.29-2a2.5,2.5,0,0,1-1.51-3.2h0a2.49,2.49,0,0,1,3.19-1.51h0a2.5,2.5,0,0,1,1.52,3.19h0a2.51,2.51,0,0,1-2.36,1.66h0A2.47,2.47,0,0,1,111.75,1768.35Zm616.55-2.66a2.5,2.5,0,0,1,1.56-3.17h0a2.5,2.5,0,0,1,3.17,1.57h0a2.49,2.49,0,0,1-1.57,3.16h0a2.45,2.45,0,0,1-.8.14h0A2.49,2.49,0,0,1,728.3,1765.69Zm-630.68-2.5h0a2.5,2.5,0,0,1-1.46-3.22h0a2.51,2.51,0,0,1,3.22-1.47h0a2.51,2.51,0,0,1,1.46,3.22h0a2.5,2.5,0,0,1-2.34,1.63h0A2.48,2.48,0,0,1,97.62,1763.19Zm644.86-2.37a2.51,2.51,0,0,1,1.53-3.19h0a2.5,2.5,0,0,1,3.19,1.52h0a2.51,2.51,0,0,1-1.53,3.19h0a2.39,2.39,0,0,1-.83.15h0A2.52,2.52,0,0,1,742.48,1760.82Zm-658.91-3a2.51,2.51,0,0,1-1.41-3.24h0a2.5,2.5,0,0,1,3.25-1.41h0a2.51,2.51,0,0,1,1.41,3.24h0a2.5,2.5,0,0,1-2.33,1.59h0A2.55,2.55,0,0,1,83.57,1757.79Zm673-2a2.51,2.51,0,0,1,1.48-3.21h0a2.5,2.5,0,0,1,3.21,1.48h0a2.49,2.49,0,0,1-1.48,3.21h0a2.34,2.34,0,0,1-.86.16h0A2.51,2.51,0,0,1,756.6,1755.76Zm-687-3.6a2.49,2.49,0,0,1-1.36-3.26h0a2.51,2.51,0,0,1,3.27-1.36h0a2.51,2.51,0,0,1,1.35,3.27h0a2.49,2.49,0,0,1-2.31,1.54h0A2.44,2.44,0,0,1,69.62,1752.16Zm701-1.65a2.49,2.49,0,0,1,1.44-3.22h0a2.49,2.49,0,0,1,3.23,1.44h0a2.49,2.49,0,0,1-1.44,3.22h0a2.34,2.34,0,0,1-.89.17h0A2.5,2.5,0,0,1,770.65,1750.51Zm14-5.43a2.5,2.5,0,0,1,1.4-3.24h0a2.5,2.5,0,0,1,3.25,1.39h0a2.5,2.5,0,0,1-1.4,3.25h0a2.51,2.51,0,0,1-.92.18h0A2.51,2.51,0,0,1,784.63,1745.08ZM55.76,1746.3h0a2.5,2.5,0,0,1-1.3-3.29h0a2.51,2.51,0,0,1,3.29-1.3h0a2.51,2.51,0,0,1,1.3,3.29h0a2.5,2.5,0,0,1-2.3,1.51h0A2.48,2.48,0,0,1,55.76,1746.3Zm742.78-6.83a2.5,2.5,0,0,1,1.36-3.26h0a2.49,2.49,0,0,1,3.26,1.35h0a2.51,2.51,0,0,1-1.35,3.27h0a2.48,2.48,0,0,1-.95.19h0A2.5,2.5,0,0,1,798.54,1739.47ZM42,1740.21a2.5,2.5,0,0,1-1.25-3.31h0a2.5,2.5,0,0,1,3.31-1.24h0a2.49,2.49,0,0,1,1.25,3.3h0a2.5,2.5,0,0,1-2.28,1.47h0A2.48,2.48,0,0,1,42,1740.21Zm770.38-6.52a2.52,2.52,0,0,1,1.32-3.29h0a2.5,2.5,0,0,1,3.28,1.32h0a2.5,2.5,0,0,1-1.32,3.28h0a2.42,2.42,0,0,1-1,.2h0A2.51,2.51,0,0,1,812.38,1733.69Zm-784,.2a2.5,2.5,0,0,1-1.19-3.33h0a2.5,2.5,0,0,1,3.33-1.19h0a2.5,2.5,0,0,1,1.19,3.33h0a2.49,2.49,0,0,1-2.26,1.43h0A2.56,2.56,0,0,1,28.34,1733.89Zm797.81-6.17a2.47,2.47,0,0,1,1.27-3.29h0a2.5,2.5,0,0,1,3.3,1.27h0a2.51,2.51,0,0,1-1.28,3.3h0a2.58,2.58,0,0,1-1,.21h0A2.48,2.48,0,0,1,826.15,1727.72Zm-811.36-.39a2.5,2.5,0,0,1-1.13-3.34h0a2.5,2.5,0,0,1,3.35-1.14h0a2.49,2.49,0,0,1,1.13,3.35h0a2.49,2.49,0,0,1-2.24,1.39h0A2.47,2.47,0,0,1,14.79,1727.33Zm825-5.73a2.51,2.51,0,0,1,1.23-3.32h0a2.51,2.51,0,0,1,3.32,1.23h0a2.51,2.51,0,0,1-1.23,3.32h0a2.61,2.61,0,0,1-1,.23h0A2.52,2.52,0,0,1,839.83,1721.6Zm-838.47-1a2.5,2.5,0,0,1-1.08-3.37h0a2.5,2.5,0,0,1,3.37-1.07h0a2.49,2.49,0,0,1,1.08,3.36h0a2.5,2.5,0,0,1-2.23,1.36h0A2.46,2.46,0,0,1,1.36,1720.55Zm852.08-5.25a2.5,2.5,0,0,1,1.2-3.33h0a2.5,2.5,0,0,1,3.33,1.19h0a2.51,2.51,0,0,1-1.2,3.33h0a2.34,2.34,0,0,1-1.06.24h0A2.52,2.52,0,0,1,853.44,1715.3Zm13.54-6.46a2.5,2.5,0,0,1,1.15-3.34h0a2.51,2.51,0,0,1,3.35,1.15h0a2.5,2.5,0,0,1-1.16,3.34h0a2.48,2.48,0,0,1-1.09.25h0A2.49,2.49,0,0,1,867,1708.84Zm13.46-6.62a2.51,2.51,0,0,1,1.11-3.36h0a2.5,2.5,0,0,1,3.36,1.12h0a2.5,2.5,0,0,1-1.11,3.35h0a2.54,2.54,0,0,1-1.13.27h0A2.51,2.51,0,0,1,880.44,1702.22Zm13.38-6.78a2.51,2.51,0,0,1,1.08-3.37h0a2.49,2.49,0,0,1,3.36,1.08h0a2.5,2.5,0,0,1-1.07,3.37h0a2.5,2.5,0,0,1-1.15.28h0A2.5,2.5,0,0,1,893.82,1695.44Zm13.3-6.93a2.48,2.48,0,0,1,1-3.37h0a2.5,2.5,0,0,1,3.38,1h0a2.5,2.5,0,0,1-1,3.38h0a2.44,2.44,0,0,1-1.17.29h0A2.5,2.5,0,0,1,907.12,1688.51Zm13.22-7.07a2.51,2.51,0,0,1,1-3.4h0a2.49,2.49,0,0,1,3.39,1h0a2.49,2.49,0,0,1-1,3.39h0a2.47,2.47,0,0,1-1.2.31h0A2.52,2.52,0,0,1,920.34,1681.44Zm13.15-7.23a2.51,2.51,0,0,1,1-3.4h0a2.49,2.49,0,0,1,3.4,1h0a2.49,2.49,0,0,1-1,3.4h0a2.45,2.45,0,0,1-1.22.32h0A2.5,2.5,0,0,1,933.49,1674.21Zm13.06-7.37a2.51,2.51,0,0,1,.93-3.41h0a2.5,2.5,0,0,1,3.41.93h0a2.5,2.5,0,0,1-.92,3.41h0a2.56,2.56,0,0,1-1.24.33h0A2.51,2.51,0,0,1,946.55,1666.84Zm13-7.5a2.51,2.51,0,0,1,.89-3.43h0a2.5,2.5,0,0,1,3.42.89h0a2.5,2.5,0,0,1-.89,3.42h0a2.44,2.44,0,0,1-1.27.35h0A2.49,2.49,0,0,1,959.54,1659.34Zm12.9-7.65a2.5,2.5,0,0,1,.86-3.43h0a2.5,2.5,0,0,1,3.43.86h0a2.49,2.49,0,0,1-.85,3.42h0a2.53,2.53,0,0,1-1.29.35h0A2.5,2.5,0,0,1,972.44,1651.69Zm12.83-7.78a2.48,2.48,0,0,1,.82-3.43h0a2.49,2.49,0,0,1,3.43.81h0a2.5,2.5,0,0,1-.81,3.44h0a2.5,2.5,0,0,1-1.31.37h0A2.49,2.49,0,0,1,985.27,1643.91ZM998,1636a2.5,2.5,0,0,1,.78-3.45h0a2.5,2.5,0,0,1,3.45.78h0a2.5,2.5,0,0,1-.78,3.45h0a2.47,2.47,0,0,1-1.33.38h0A2.51,2.51,0,0,1,998,1636Zm12.67-8a2.5,2.5,0,0,1,.74-3.46h0a2.51,2.51,0,0,1,3.46.75h0a2.51,2.51,0,0,1-.75,3.46h0a2.5,2.5,0,0,1-1.35.4h0A2.49,2.49,0,0,1,1010.68,1628Zm12.63-8.1a2.48,2.48,0,0,1,.37-3.51h0a2.48,2.48,0,0,1,3.51.37h0a2.49,2.49,0,0,1-.37,3.51h0a2.46,2.46,0,0,1-1.57.56h0A2.48,2.48,0,0,1,1023.31,1619.87Zm11.93-9.09a2.49,2.49,0,0,1,.64-3.47h0a2.51,2.51,0,0,1,3.48.64h0a2.51,2.51,0,0,1-.64,3.48h0a2.55,2.55,0,0,1-1.42.44h0A2.52,2.52,0,0,1,1035.24,1610.78Zm437.62-3.5a2.49,2.49,0,0,1-2.44-2.55h0a2.49,2.49,0,0,1,2.55-2.45h0a2.51,2.51,0,0,1,2.45,2.55h0a2.5,2.5,0,0,1-2.5,2.45h-.06Zm12.58-2.45a2.49,2.49,0,0,1,2.43-2.56h0a2.49,2.49,0,0,1,2.55,2.44h0a2.51,2.51,0,0,1-2.44,2.56h-.06A2.49,2.49,0,0,1,1485.44,1604.83Zm-27.67,1.82h0a2.51,2.51,0,0,1-2.34-2.66h0a2.5,2.5,0,0,1,2.65-2.34h0a2.52,2.52,0,0,1,2.34,2.65h0a2.5,2.5,0,0,1-2.5,2.35h-.15Zm42.65-2.41a2.5,2.5,0,0,1,2.32-2.67h0a2.51,2.51,0,0,1,2.67,2.32h0a2.49,2.49,0,0,1-2.32,2.67h-.18A2.5,2.5,0,0,1,1500.42,1604.24Zm-57.7,1.19h0a2.5,2.5,0,0,1-2.24-2.74h0a2.51,2.51,0,0,1,2.73-2.24h0a2.51,2.51,0,0,1,2.25,2.74h0a2.5,2.5,0,0,1-2.49,2.25h-.25Zm72.64-2.48a2.52,2.52,0,0,1,2.19-2.79h0a2.51,2.51,0,0,1,2.78,2.19h0a2.5,2.5,0,0,1-2.19,2.78h0l-.29,0h0A2.52,2.52,0,0,1,1515.36,1603Zm-87.62.74a2.5,2.5,0,0,1-2.15-2.81h0a2.49,2.49,0,0,1,2.8-2.15h0a2.5,2.5,0,0,1,2.15,2.81h0a2.5,2.5,0,0,1-2.47,2.17h0Zm-380-1.23a2.49,2.49,0,0,1,.81-3.44h0a2.5,2.5,0,0,1,3.44.81h0a2.5,2.5,0,0,1-.81,3.44h0a2.45,2.45,0,0,1-1.31.38h0A2.49,2.49,0,0,1,1047.73,1602.46Zm482.49-1.56a2.5,2.5,0,0,1,2-2.9h0a2.49,2.49,0,0,1,2.89,2h0a2.49,2.49,0,0,1-2,2.9h0a2.18,2.18,0,0,1-.44,0h0A2.5,2.5,0,0,1,1530.22,1600.9Zm-117.39.6h0a2.5,2.5,0,0,1-2.08-2.86h0a2.51,2.51,0,0,1,2.87-2.07h0a2.5,2.5,0,0,1,2.07,2.86h0a2.51,2.51,0,0,1-2.47,2.11h0Zm132.1-3.53a2.5,2.5,0,0,1,1.84-3h0a2.48,2.48,0,0,1,3,1.84h0a2.49,2.49,0,0,1-1.84,3h0a2.38,2.38,0,0,1-.59.07h0A2.51,2.51,0,0,1,1544.93,1598Zm-146.94,1h0a2.5,2.5,0,0,1-2-2.92h0a2.5,2.5,0,0,1,2.91-2h0a2.5,2.5,0,0,1,2,2.91h0a2.5,2.5,0,0,1-2.46,2h0A2.28,2.28,0,0,1,1398,1598.92Zm-14.77-2.89a2.5,2.5,0,0,1-2-3h0a2.5,2.5,0,0,1,3-1.95h0a2.51,2.51,0,0,1,2,2.95h0a2.52,2.52,0,0,1-2.45,2h0A2.92,2.92,0,0,1,1383.22,1596Zm-322.61-1.26a2.49,2.49,0,0,1,1-3.4h0a2.5,2.5,0,0,1,3.4,1h0a2.5,2.5,0,0,1-1,3.4h0a2.52,2.52,0,0,1-1.21.32h0A2.49,2.49,0,0,1,1060.61,1594.77Zm498.83-.63a2.5,2.5,0,0,1,1.65-3.13h0a2.5,2.5,0,0,1,3.13,1.65h0a2.52,2.52,0,0,1-1.66,3.13h0a2.65,2.65,0,0,1-.74.11h0A2.5,2.5,0,0,1,1559.44,1594.14Zm-190.93-1.25a2.5,2.5,0,0,1-1.91-3h0a2.5,2.5,0,0,1,3-1.91h0a2.5,2.5,0,0,1,1.91,3h0a2.5,2.5,0,0,1-2.44,2h0A2.48,2.48,0,0,1,1368.51,1592.89Zm205.17-3.46a2.49,2.49,0,0,1,1.47-3.21h0a2.5,2.5,0,0,1,3.22,1.46h0a2.51,2.51,0,0,1-1.47,3.22h0a2.43,2.43,0,0,1-.87.16h0A2.51,2.51,0,0,1,1573.68,1589.43Zm-219.83.16h0a2.51,2.51,0,0,1-1.88-3h0a2.51,2.51,0,0,1,3-1.88h0a2.51,2.51,0,0,1,1.88,3h0a2.51,2.51,0,0,1-2.44,1.94h0A2.74,2.74,0,0,1,1353.85,1589.59Zm-280-1.87a2.5,2.5,0,0,1,1.15-3.34h0a2.51,2.51,0,0,1,3.35,1.15h0a2.5,2.5,0,0,1-1.15,3.34h0a2.43,2.43,0,0,1-1.1.26h0A2.52,2.52,0,0,1,1073.84,1587.72Zm265.38-1.54a2.5,2.5,0,0,1-1.86-3h0a2.51,2.51,0,0,1,3-1.87h0a2.5,2.5,0,0,1,1.86,3h0a2.51,2.51,0,0,1-2.43,1.93h0A2.36,2.36,0,0,1,1339.22,1586.18Zm248.41-2.28a2.5,2.5,0,0,1,1.27-3.3h0a2.5,2.5,0,0,1,3.3,1.27h0a2.5,2.5,0,0,1-1.28,3.3h0a2.38,2.38,0,0,1-1,.21h0A2.48,2.48,0,0,1,1587.63,1583.9Zm-500.19-2.51a2.49,2.49,0,0,1,1.33-3.27h0a2.49,2.49,0,0,1,3.27,1.33h0a2.49,2.49,0,0,1-1.33,3.27h0a2.38,2.38,0,0,1-1,.2h0A2.49,2.49,0,0,1,1087.44,1581.39Zm237.18,1.35a2.49,2.49,0,0,1-1.86-3h0a2.5,2.5,0,0,1,3-1.87h0a2.5,2.5,0,0,1,1.87,3h0a2.52,2.52,0,0,1-2.44,1.93h0A2.22,2.22,0,0,1,1324.62,1582.74Zm-14.6-3.4a2.49,2.49,0,0,1-1.88-3h0a2.5,2.5,0,0,1,3-1.88h0a2.5,2.5,0,0,1,1.87,3h0a2.5,2.5,0,0,1-2.43,1.94h0A2.15,2.15,0,0,1,1310,1579.34Zm291.2-1.78a2.5,2.5,0,0,1,1.08-3.37h0a2.5,2.5,0,0,1,3.37,1.08h0a2.51,2.51,0,0,1-1.08,3.37h0a2.49,2.49,0,0,1-1.14.28h0A2.51,2.51,0,0,1,1601.22,1577.56Zm-499.86-1.73a2.5,2.5,0,0,1,1.52-3.19h0a2.48,2.48,0,0,1,3.19,1.52h0a2.49,2.49,0,0,1-1.51,3.19h0a2.47,2.47,0,0,1-.84.14h0A2.51,2.51,0,0,1,1101.36,1575.83Zm194,.23h0a2.51,2.51,0,0,1-1.91-3h0a2.51,2.51,0,0,1,3-1.91h0a2.51,2.51,0,0,1,1.91,3h0a2.5,2.5,0,0,1-2.44,2h0A2.47,2.47,0,0,1,1295.4,1576.06Zm-14.64-3.1h0a2.5,2.5,0,0,1-2-3h0a2.49,2.49,0,0,1,2.94-2h0a2.5,2.5,0,0,1,2,3h0a2.52,2.52,0,0,1-2.45,2h0A2.83,2.83,0,0,1,1280.76,1573Zm-165.17-1.87a2.5,2.5,0,0,1,1.7-3.1h0a2.5,2.5,0,0,1,3.1,1.7h0a2.51,2.51,0,0,1-1.7,3.1h0a2.47,2.47,0,0,1-.7.1h0A2.51,2.51,0,0,1,1115.59,1571.09Zm498.84-.65a2.5,2.5,0,0,1,.88-3.42h0a2.5,2.5,0,0,1,3.42.88h0a2.5,2.5,0,0,1-.89,3.42h0a2.43,2.43,0,0,1-1.26.35h0A2.49,2.49,0,0,1,1614.43,1570.44Zm-348.35-.32h0a2.51,2.51,0,0,1-2-2.91h0a2.51,2.51,0,0,1,2.91-2h0a2.5,2.5,0,0,1,2,2.91h0a2.49,2.49,0,0,1-2.45,2.05h0A2.28,2.28,0,0,1,1266.08,1570.12Zm-136-2.93a2.49,2.49,0,0,1,1.88-3h0a2.5,2.5,0,0,1,3,1.88h0a2.51,2.51,0,0,1-1.89,3h0a2.57,2.57,0,0,1-.55.06h0A2.5,2.5,0,0,1,1130.07,1567.19Zm121.28.44h0a2.5,2.5,0,0,1-2.09-2.85h0a2.49,2.49,0,0,1,2.86-2.08h0a2.51,2.51,0,0,1,2.08,2.86h0a2.5,2.5,0,0,1-2.47,2.12h0Zm-106.59-3.47a2.49,2.49,0,0,1,2.06-2.87h0a2.49,2.49,0,0,1,2.87,2.06h0a2.5,2.5,0,0,1-2.06,2.87h0a2.85,2.85,0,0,1-.41,0h0A2.5,2.5,0,0,1,1144.76,1564.16Zm91.81,1.39h0a2.5,2.5,0,0,1-2.17-2.79h0a2.49,2.49,0,0,1,2.78-2.17h0a2.5,2.5,0,0,1,2.17,2.79h0a2.5,2.5,0,0,1-2.48,2.19h0A1.62,1.62,0,0,1,1236.57,1565.55Zm-77-3.55a2.5,2.5,0,0,1,2.22-2.75h0a2.49,2.49,0,0,1,2.75,2.22h0a2.49,2.49,0,0,1-2.22,2.75h-.27A2.5,2.5,0,0,1,1159.59,1562Zm62.16,2a2.5,2.5,0,0,1-2.28-2.71h0a2.49,2.49,0,0,1,2.71-2.27h0a2.51,2.51,0,0,1,2.28,2.71h0a2.51,2.51,0,0,1-2.5,2.28h-.21Zm405.46-1.4a2.51,2.51,0,0,1,.68-3.47h0a2.5,2.5,0,0,1,3.47.69h0a2.5,2.5,0,0,1-.69,3.47h0a2.51,2.51,0,0,1-1.38.42h0A2.49,2.49,0,0,1,1627.21,1562.58Zm-452.68-1.9a2.49,2.49,0,0,1,2.36-2.63h0a2.5,2.5,0,0,1,2.63,2.37h0a2.5,2.5,0,0,1-2.37,2.62H1177A2.5,2.5,0,0,1,1174.53,1560.68Zm32.36,2.31a2.49,2.49,0,0,1-2.38-2.61h0a2.5,2.5,0,0,1,2.61-2.39h0a2.5,2.5,0,0,1,2.38,2.61h0a2.5,2.5,0,0,1-2.5,2.39h-.11Zm-17.38-2.83a2.52,2.52,0,0,1,2.5-2.51h0a2.5,2.5,0,0,1,2.5,2.5h0a2.51,2.51,0,0,1-2.49,2.51h0A2.5,2.5,0,0,1,1189.51,1560.16Zm450-6.16a2.5,2.5,0,0,1,.49-3.5h0a2.49,2.49,0,0,1,3.5.49h0a2.5,2.5,0,0,1-.49,3.5h0a2.48,2.48,0,0,1-1.5.5h0A2.49,2.49,0,0,1,1639.51,1554Zm11.79-9.27a2.5,2.5,0,0,1,.29-3.52h0a2.49,2.49,0,0,1,3.52.28h0a2.5,2.5,0,0,1-.28,3.53h0a2.55,2.55,0,0,1-1.62.59h0A2.51,2.51,0,0,1,1651.3,1544.73Zm11.24-9.93a2.51,2.51,0,0,1,.08-3.54h0a2.51,2.51,0,0,1,3.54.08h0a2.52,2.52,0,0,1-.08,3.54h0a2.52,2.52,0,0,1-1.73.69h0A2.51,2.51,0,0,1,1662.54,1534.8Zm10.64-10.58a2.5,2.5,0,0,1-.13-3.53h0a2.5,2.5,0,0,1,3.53-.13h0a2.5,2.5,0,0,1,.13,3.53h0a2.48,2.48,0,0,1-1.83.79h0A2.47,2.47,0,0,1,1673.18,1524.22Zm10-11.18a2.5,2.5,0,0,1-.34-3.52h0a2.5,2.5,0,0,1,3.52-.34h0a2.5,2.5,0,0,1,.34,3.52h0a2.5,2.5,0,0,1-1.93.91h0A2.5,2.5,0,0,1,1683.17,1513Zm9.3-11.77a2.5,2.5,0,0,1-.55-3.49h0a2.5,2.5,0,0,1,3.49-.55h0a2.5,2.5,0,0,1,.55,3.49h0a2.5,2.5,0,0,1-2,1h0A2.46,2.46,0,0,1,1692.47,1501.27ZM1701,1489a2.5,2.5,0,0,1-.77-3.45h0a2.49,2.49,0,0,1,3.45-.77h0a2.5,2.5,0,0,1,.77,3.45h0a2.51,2.51,0,0,1-2.11,1.16h0A2.51,2.51,0,0,1,1701,1489Zm7.77-12.83a2.49,2.49,0,0,1-1-3.39h0a2.49,2.49,0,0,1,3.39-1h0a2.51,2.51,0,0,1,1,3.4h0a2.49,2.49,0,0,1-2.19,1.3h0A2.47,2.47,0,0,1,1708.8,1476.13Zm6.92-13.31a2.5,2.5,0,0,1-1.21-3.32h0a2.52,2.52,0,0,1,3.33-1.21h0a2.51,2.51,0,0,1,1.21,3.33h0a2.52,2.52,0,0,1-2.27,1.44h0A2.55,2.55,0,0,1,1715.72,1462.82Zm6-13.73a2.5,2.5,0,0,1-1.42-3.24h0a2.5,2.5,0,0,1,3.23-1.42h0a2.49,2.49,0,0,1,1.43,3.23h0a2.51,2.51,0,0,1-2.33,1.6h0A2.66,2.66,0,0,1,1721.76,1449.09Zm5.11-14.11a2.5,2.5,0,0,1-1.65-3.13h0a2.51,2.51,0,0,1,3.13-1.65h0a2.51,2.51,0,0,1,1.65,3.13h0a2.5,2.5,0,0,1-2.39,1.75h0A2.42,2.42,0,0,1,1726.87,1435Zm4.13-14.43a2.52,2.52,0,0,1-1.86-3h0a2.51,2.51,0,0,1,3-1.86h0a2.5,2.5,0,0,1,1.86,3h0a2.51,2.51,0,0,1-2.43,1.93h0A3,3,0,0,1,1731,1420.55Zm3.12-14.66a2.52,2.52,0,0,1-2.06-2.88h0a2.51,2.51,0,0,1,2.87-2.06h0a2.5,2.5,0,0,1,2.07,2.87h0a2.5,2.5,0,0,1-2.46,2.1h0A2.83,2.83,0,0,1,1734.12,1405.89Zm2.09-14.85a2.5,2.5,0,0,1-2.25-2.72h0a2.5,2.5,0,0,1,2.72-2.26h0a2.51,2.51,0,0,1,2.26,2.73h0a2.51,2.51,0,0,1-2.49,2.26h-.24Zm1-15a2.51,2.51,0,0,1-2.46-2.54h0a2.49,2.49,0,0,1,2.54-2.45h0a2.49,2.49,0,0,1,2.45,2.54h0a2.51,2.51,0,0,1-2.5,2.46h0Zm-2.76-17.35h0a2.5,2.5,0,0,1,2.35-2.64h0a2.5,2.5,0,0,1,2.64,2.35h0a2.5,2.5,0,0,1-2.35,2.64H1737A2.51,2.51,0,0,1,1734.48,1358.73ZM1733,1344a2.49,2.49,0,0,1,2.14-2.81h0a2.49,2.49,0,0,1,2.81,2.13h0a2.5,2.5,0,0,1-2.14,2.82h0l-.34,0h0A2.5,2.5,0,0,1,1733,1344Zm-2.55-14.58a2.5,2.5,0,0,1,1.92-3h0a2.5,2.5,0,0,1,3,1.92h0a2.52,2.52,0,0,1-1.93,3h0a2.31,2.31,0,0,1-.52.06h0A2.49,2.49,0,0,1,1730.49,1329.43Zm-3.63-14.37h0a2.48,2.48,0,0,1,1.7-3.09h0a2.5,2.5,0,0,1,3.1,1.7h0a2.51,2.51,0,0,1-1.71,3.1h0a2.35,2.35,0,0,1-.69.1h0A2.51,2.51,0,0,1,1726.86,1315.06Zm-4.62-14.08h0a2.5,2.5,0,0,1,1.49-3.21h0a2.49,2.49,0,0,1,3.2,1.49h0a2.5,2.5,0,0,1-1.48,3.21h0a2.64,2.64,0,0,1-.86.15h0A2.51,2.51,0,0,1,1722.24,1301Zm-5.56-13.76h0a2.49,2.49,0,0,1,1.28-3.29h0a2.5,2.5,0,0,1,3.3,1.27h0a2.5,2.5,0,0,1-1.28,3.29h0a2.42,2.42,0,0,1-1,.22h0A2.5,2.5,0,0,1,1716.68,1287.22Zm-6.4-13.4a2.49,2.49,0,0,1,1.08-3.36h0a2.49,2.49,0,0,1,3.36,1.08h0a2.51,2.51,0,0,1-1.08,3.37h0a2.55,2.55,0,0,1-1.14.27h0A2.47,2.47,0,0,1,1710.28,1273.82Zm-7.17-13a2.51,2.51,0,0,1,.89-3.43h0a2.5,2.5,0,0,1,3.42.9h0a2.5,2.5,0,0,1-.89,3.42h0a2.55,2.55,0,0,1-1.27.34h0A2.49,2.49,0,0,1,1703.11,1260.81Zm-7.86-12.63h0a2.51,2.51,0,0,1,.71-3.47h0a2.51,2.51,0,0,1,3.46.72h0a2.5,2.5,0,0,1-.71,3.46h0a2.46,2.46,0,0,1-1.37.41h0A2.48,2.48,0,0,1,1695.25,1248.18Zm-8.48-12.24a2.5,2.5,0,0,1,.56-3.49h0a2.49,2.49,0,0,1,3.49.55h0a2.51,2.51,0,0,1-.55,3.49h0a2.53,2.53,0,0,1-1.47.48h0A2.52,2.52,0,0,1,1686.77,1235.94Zm-9-11.86a2.51,2.51,0,0,1,.41-3.51h0a2.51,2.51,0,0,1,3.51.41h0a2.5,2.5,0,0,1-.4,3.51h0a2.46,2.46,0,0,1-1.55.54h0A2.5,2.5,0,0,1,1677.76,1224.08Zm-9.45-11.53h0a2.48,2.48,0,0,1,.29-3.52h0a2.5,2.5,0,0,1,3.52.29h0a2.51,2.51,0,0,1-.29,3.53h0a2.52,2.52,0,0,1-1.61.59h0A2.47,2.47,0,0,1,1668.31,1212.55Zm-9.79-11.28a2.5,2.5,0,0,1,.21-3.53h0a2.49,2.49,0,0,1,3.53.21h0a2.51,2.51,0,0,1-.21,3.53h0a2.51,2.51,0,0,1-1.66.63h0A2.51,2.51,0,0,1,1658.52,1201.27Zm-10-11.14h0a2.5,2.5,0,0,1,.18-3.53h0a2.5,2.5,0,0,1,3.53.17h0a2.51,2.51,0,0,1-.17,3.53h0a2.54,2.54,0,0,1-1.68.65h0A2.52,2.52,0,0,1,1648.51,1190.13ZM1638.42,1179h0a2.5,2.5,0,0,1,.17-3.53h0a2.49,2.49,0,0,1,3.53.17h0a2.5,2.5,0,0,1-.17,3.53h0a2.52,2.52,0,0,1-1.68.65h0A2.5,2.5,0,0,1,1638.42,1179Zm-10.05-11.17a2.49,2.49,0,0,1,.21-3.53h0a2.5,2.5,0,0,1,3.52.21h0a2.5,2.5,0,0,1-.2,3.53h0a2.51,2.51,0,0,1-1.66.63h0A2.47,2.47,0,0,1,1628.37,1167.87Zm-9.88-11.36a2.5,2.5,0,0,1,.29-3.52h0a2.49,2.49,0,0,1,3.53.29h0a2.49,2.49,0,0,1-.3,3.52h0a2.47,2.47,0,0,1-1.61.59h0A2.5,2.5,0,0,1,1618.49,1156.51Zm-9.54-11.68h0a2.5,2.5,0,0,1,.41-3.51h0a2.52,2.52,0,0,1,3.52.42h0a2.5,2.5,0,0,1-.43,3.51h0a2.47,2.47,0,0,1-1.54.54h0A2.48,2.48,0,0,1,1609,1144.83Zm-9.06-12.1a2.51,2.51,0,0,1,.59-3.49h0a2.5,2.5,0,0,1,3.49.6h0a2.49,2.49,0,0,1-.6,3.48h0a2.46,2.46,0,0,1-1.44.46h0A2.52,2.52,0,0,1,1599.89,1132.73Zm-8.38-12.61a2.51,2.51,0,0,1,.8-3.45h0a2.51,2.51,0,0,1,3.44.81h0a2.51,2.51,0,0,1-.81,3.44h0a2.46,2.46,0,0,1-1.32.38h0A2.5,2.5,0,0,1,1591.51,1120.12ZM1584,1107a2.5,2.5,0,0,1,1-3.37h0a2.5,2.5,0,0,1,3.37,1.05h0a2.49,2.49,0,0,1-1.05,3.38h0a2.54,2.54,0,0,1-1.16.28h0A2.47,2.47,0,0,1,1584,1107Zm-6.54-13.69a2.51,2.51,0,0,1,1.31-3.29h0a2.5,2.5,0,0,1,3.28,1.31h0a2.52,2.52,0,0,1-1.32,3.29h0a2.6,2.6,0,0,1-1,.2h0A2.51,2.51,0,0,1,1577.43,1093.26Zm-5.42-14.19h0a2.49,2.49,0,0,1,1.58-3.16h0a2.49,2.49,0,0,1,3.16,1.57h0a2.49,2.49,0,0,1-1.57,3.16h0a2.54,2.54,0,0,1-.8.14h0A2.5,2.5,0,0,1,1572,1079.07Zm-4.24-14.58a2.51,2.51,0,0,1,1.83-3h0a2.51,2.51,0,0,1,3,1.83h0a2.51,2.51,0,0,1-1.83,3h0a2.46,2.46,0,0,1-.6.07h0A2.51,2.51,0,0,1,1567.77,1064.49Zm-3-14.86h0a2.51,2.51,0,0,1,2.06-2.88h0a2.5,2.5,0,0,1,2.87,2.06h0a2.5,2.5,0,0,1-2.05,2.88h0l-.41,0h0A2.5,2.5,0,0,1,1564.72,1049.63Zm-1.91-15.06h0a2.5,2.5,0,0,1,2.28-2.71h0a2.48,2.48,0,0,1,2.7,2.27h0a2.5,2.5,0,0,1-2.27,2.71h-.22A2.51,2.51,0,0,1,1562.81,1034.57Zm-.72-15.18a2.49,2.49,0,0,1,2.47-2.52h0a2.5,2.5,0,0,1,2.53,2.48h0a2.5,2.5,0,0,1-2.48,2.52h0A2.5,2.5,0,0,1,1562.09,1019.39Zm2.8-12.52a2.5,2.5,0,0,1-2.31-2.68h0a2.49,2.49,0,0,1,2.67-2.3h0a2.5,2.5,0,0,1,2.32,2.67h0a2.51,2.51,0,0,1-2.5,2.32h-.18Zm1.53-14.92a2.49,2.49,0,0,1-2.07-2.87h0a2.5,2.5,0,0,1,2.87-2.06h0a2.51,2.51,0,0,1,2.07,2.87h0a2.51,2.51,0,0,1-2.47,2.1h0A2.71,2.71,0,0,1,1566.42,992Zm2.85-14.71a2.5,2.5,0,0,1-1.78-3h0a2.5,2.5,0,0,1,3-1.79h0a2.5,2.5,0,0,1,1.78,3.05h0a2.5,2.5,0,0,1-2.42,1.87h0A2.87,2.87,0,0,1,1569.27,977.24Zm4.29-14.36a2.51,2.51,0,0,1-1.46-3.22h0a2.51,2.51,0,0,1,3.23-1.46h0a2.5,2.5,0,0,1,1.45,3.22h0a2.51,2.51,0,0,1-2.34,1.62h0A2.48,2.48,0,0,1,1573.56,962.88Zm5.82-13.81a2.5,2.5,0,0,1-1.06-3.37h0a2.5,2.5,0,0,1,3.37-1.06h0a2.5,2.5,0,0,1,1.07,3.37h0a2.5,2.5,0,0,1-2.22,1.35h0A2.43,2.43,0,0,1,1579.38,949.07Zm7.48-13a2.49,2.49,0,0,1-.62-3.48h0a2.49,2.49,0,0,1,3.48-.62h0a2.5,2.5,0,0,1,.62,3.48h0a2.5,2.5,0,0,1-2,1.07h0A2.5,2.5,0,0,1,1586.86,936.09Zm9.16-11.86a2.49,2.49,0,0,1-.1-3.53h0a2.51,2.51,0,0,1,3.53-.11h0a2.51,2.51,0,0,1,.1,3.54h0a2.48,2.48,0,0,1-1.82.78h0A2.46,2.46,0,0,1,1596,924.23Zm10.82-10.37a2.49,2.49,0,0,1,.44-3.51h0a2.49,2.49,0,0,1,3.5.44h0a2.5,2.5,0,0,1-.43,3.51h0a2.53,2.53,0,0,1-1.54.52h0A2.49,2.49,0,0,1,1606.84,913.86Zm263.75-8.7a2.51,2.51,0,0,1,2.47-2.54h0a2.5,2.5,0,0,1,2.53,2.47h0a2.5,2.5,0,0,1-2.47,2.53h0A2.5,2.5,0,0,1,1870.59,905.16ZM1858,907.45h0a2.5,2.5,0,0,1-2.42-2.58h0a2.5,2.5,0,0,1,2.59-2.41h0a2.5,2.5,0,0,1,2.41,2.59h0a2.51,2.51,0,0,1-2.5,2.42H1858Zm27.57-2.78a2.49,2.49,0,0,1,2.31-2.67h0a2.51,2.51,0,0,1,2.68,2.31h0a2.5,2.5,0,0,1-2.31,2.67h-.19A2.5,2.5,0,0,1,1885.58,904.67Zm-42.65,2h0a2.5,2.5,0,0,1-2.31-2.67h0a2.49,2.49,0,0,1,2.67-2.32h0a2.49,2.49,0,0,1,2.31,2.67h0a2.49,2.49,0,0,1-2.49,2.32h-.18Zm-223.81-1.37a2.49,2.49,0,0,1,1-3.39h0a2.49,2.49,0,0,1,3.4,1h0a2.5,2.5,0,0,1-1,3.4h0a2.53,2.53,0,0,1-1.21.31h0A2.49,2.49,0,0,1,1619.12,905.28Zm208.81.1a2.51,2.51,0,0,1-2.25-2.74h0a2.51,2.51,0,0,1,2.74-2.24h0a2.5,2.5,0,0,1,2.24,2.73h0a2.49,2.49,0,0,1-2.48,2.26h-.25Zm72.58-2.15a2.5,2.5,0,0,1,2.11-2.84h0a2.49,2.49,0,0,1,2.83,2.11h0a2.5,2.5,0,0,1-2.1,2.84h0l-.37,0h0A2.5,2.5,0,0,1,1900.51,903.23Zm-87.54.52h0a2.5,2.5,0,0,1-2.19-2.77h0a2.5,2.5,0,0,1,2.78-2.19h0a2.5,2.5,0,0,1,2.19,2.77h0a2.5,2.5,0,0,1-2.48,2.21h0A1.51,1.51,0,0,1,1813,903.75Zm102.3-3.14a2.49,2.49,0,0,1,1.85-3h0a2.49,2.49,0,0,1,3,1.84h0a2.49,2.49,0,0,1-1.84,3h0a2.38,2.38,0,0,1-.59.07h0A2.5,2.5,0,0,1,1915.27,900.61Zm-117.21,1.29h0a2.51,2.51,0,0,1-2.16-2.81h0a2.5,2.5,0,0,1,2.8-2.15h0a2.5,2.5,0,0,1,2.16,2.8h0a2.51,2.51,0,0,1-2.48,2.18h0Zm-165.49-3.21a2.51,2.51,0,0,1,1.47-3.22h0a2.5,2.5,0,0,1,3.21,1.47h0a2.5,2.5,0,0,1-1.46,3.22h0a2.48,2.48,0,0,1-.88.16h0A2.49,2.49,0,0,1,1632.57,898.69Zm150.6,1.22h0a2.49,2.49,0,0,1-2.14-2.81h0a2.49,2.49,0,0,1,2.81-2.14h0a2.49,2.49,0,0,1,2.14,2.81h0a2.5,2.5,0,0,1-2.47,2.17h0A2,2,0,0,1,1783.17,899.91Zm146.55-3.3a2.5,2.5,0,0,1,1.52-3.19h0a2.5,2.5,0,0,1,3.19,1.52h0a2.5,2.5,0,0,1-1.52,3.19h0a2.43,2.43,0,0,1-.83.15h0A2.5,2.5,0,0,1,1929.72,896.61Zm-161.42,1.3h0a2.5,2.5,0,0,1-2.15-2.81h0A2.51,2.51,0,0,1,1769,893h0a2.49,2.49,0,0,1,2.15,2.8h0a2.5,2.5,0,0,1-2.48,2.17h0A1.83,1.83,0,0,1,1768.3,897.91Zm-121.47-3.81a2.51,2.51,0,0,1,1.86-3h0a2.51,2.51,0,0,1,3,1.86h0a2.5,2.5,0,0,1-1.86,3h0a2.22,2.22,0,0,1-.57.07h0A2.51,2.51,0,0,1,1646.83,894.1Zm106.6,1.89h0a2.5,2.5,0,0,1-2.17-2.79h0a2.5,2.5,0,0,1,2.79-2.17h0a2.5,2.5,0,0,1,2.17,2.79h0a2.49,2.49,0,0,1-2.47,2.19h0Zm-14.86-1.73h0a2.51,2.51,0,0,1-2.22-2.75h0a2.51,2.51,0,0,1,2.76-2.22h0a2.5,2.5,0,0,1,2.22,2.75h0a2.52,2.52,0,0,1-2.49,2.24h0Zm-77-3.1a2.49,2.49,0,0,1,2.14-2.81h0a2.49,2.49,0,0,1,2.81,2.13h0a2.5,2.5,0,0,1-2.14,2.82h0l-.34,0h0A2.5,2.5,0,0,1,1661.54,891.16Zm62.16,1.68h0a2.49,2.49,0,0,1-2.28-2.7h0a2.49,2.49,0,0,1,2.69-2.28h0a2.5,2.5,0,0,1,2.29,2.69h0a2.5,2.5,0,0,1-2.49,2.3h-.21Zm219.93-1.79a2.51,2.51,0,0,1,1.12-3.36h0a2.51,2.51,0,0,1,3.36,1.13h0a2.5,2.5,0,0,1-1.13,3.35h0a2.47,2.47,0,0,1-1.11.26h0A2.51,2.51,0,0,1,1943.63,891.05Zm-267.18-1.51a2.5,2.5,0,0,1,2.35-2.64h0a2.5,2.5,0,0,1,2.64,2.35h0a2.5,2.5,0,0,1-2.35,2.64H1679A2.5,2.5,0,0,1,1676.45,889.54Zm32.37,2.32a2.49,2.49,0,0,1-2.38-2.61h0a2.5,2.5,0,0,1,2.62-2.38h0a2.49,2.49,0,0,1,2.38,2.61h0a2.5,2.5,0,0,1-2.49,2.38h-.12ZM1691.44,889a2.5,2.5,0,0,1,2.5-2.5h0a2.5,2.5,0,0,1,2.5,2.5h0a2.49,2.49,0,0,1-2.5,2.5h0A2.5,2.5,0,0,1,1691.44,889Zm265.31-5.18a2.5,2.5,0,0,1,.68-3.47h0a2.51,2.51,0,0,1,3.47.68h0a2.5,2.5,0,0,1-.68,3.47h0a2.47,2.47,0,0,1-1.39.43h0A2.49,2.49,0,0,1,1956.75,883.8Zm12.06-8.89a2.51,2.51,0,0,1,.22-3.53h0a2.51,2.51,0,0,1,3.53.22h0a2.51,2.51,0,0,1-.22,3.53h0a2.51,2.51,0,0,1-1.65.63h0A2.49,2.49,0,0,1,1968.81,874.91Zm10.81-10.38a2.49,2.49,0,0,1-.22-3.53h0a2.5,2.5,0,0,1,3.52-.22h0a2.49,2.49,0,0,1,.22,3.53h0a2.48,2.48,0,0,1-1.87.85h0A2.47,2.47,0,0,1,1979.62,864.53Zm9.46-11.61a2.5,2.5,0,0,1-.62-3.48h0a2.49,2.49,0,0,1,3.48-.62h0a2.5,2.5,0,0,1,.62,3.48h0a2.5,2.5,0,0,1-2,1.07h0A2.54,2.54,0,0,1,1989.08,852.92Zm8.15-12.58a2.5,2.5,0,0,1-1-3.4h0a2.5,2.5,0,0,1,3.4-1h0a2.5,2.5,0,0,1,1,3.4h0a2.52,2.52,0,0,1-2.19,1.28h0A2.52,2.52,0,0,1,1997.23,840.34Zm6.67-13.41a2.49,2.49,0,0,1-1.66-3.12h0a2.51,2.51,0,0,1,3.12-1.67h0a2.5,2.5,0,0,1,1.66,3.12h0a2.51,2.51,0,0,1-2.39,1.78h0A2.64,2.64,0,0,1,2003.9,826.93Zm3.85-14.51a2.49,2.49,0,0,1-2-2.93h0a2.49,2.49,0,0,1,2.93-2h0a2.51,2.51,0,0,1,2,2.94h0a2.5,2.5,0,0,1-2.45,2h0A2,2,0,0,1,2007.75,812.42Zm2.46-14.79a2.51,2.51,0,0,1-2.22-2.76h0a2.51,2.51,0,0,1,2.75-2.22h0a2.51,2.51,0,0,1,2.23,2.76h0a2.51,2.51,0,0,1-2.49,2.23h-.27Zm1.16-15a2.5,2.5,0,0,1-2.46-2.54h0a2.5,2.5,0,0,1,2.54-2.46h0a2.5,2.5,0,0,1,2.46,2.54h0a2.51,2.51,0,0,1-2.5,2.46h0Zm-2.9-17.3a2.51,2.51,0,0,1,2.31-2.69h0a2.5,2.5,0,0,1,2.68,2.3h0a2.51,2.51,0,0,1-2.3,2.69h-.2A2.51,2.51,0,0,1,2008.47,765.37Zm-1.84-14.64h0a2.5,2.5,0,0,1,2-2.9h0a2.49,2.49,0,0,1,2.9,2h0a2.5,2.5,0,0,1-2,2.9h0a2.09,2.09,0,0,1-.43,0h0A2.5,2.5,0,0,1,2006.63,750.73Zm-3.32-14.35a2.5,2.5,0,0,1,1.72-3.09h0a2.5,2.5,0,0,1,3.09,1.71h0a2.5,2.5,0,0,1-1.72,3.09h0a2.35,2.35,0,0,1-.69.1h0A2.5,2.5,0,0,1,2003.31,736.38Zm-4.81-13.92a2.49,2.49,0,0,1,1.38-3.25h0a2.5,2.5,0,0,1,3.26,1.37h0a2.5,2.5,0,0,1-1.38,3.26h0a2.61,2.61,0,0,1-.94.18h0A2.51,2.51,0,0,1,1998.5,722.46Zm-6.27-13.31h0a2.49,2.49,0,0,1,1-3.38h0a2.48,2.48,0,0,1,3.38,1h0a2.5,2.5,0,0,1-1,3.39h0a2.53,2.53,0,0,1-1.19.3h0A2.51,2.51,0,0,1,1992.23,709.15Zm-7.66-12.56h0a2.5,2.5,0,0,1,.65-3.48h0a2.49,2.49,0,0,1,3.47.65h0a2.5,2.5,0,0,1-.65,3.48h0a2.52,2.52,0,0,1-1.41.44h0A2.49,2.49,0,0,1,1984.57,696.59Zm-8.94-11.71a2.49,2.49,0,0,1,.3-3.52h0a2.5,2.5,0,0,1,3.52.29h0a2.51,2.51,0,0,1-.29,3.53h0a2.55,2.55,0,0,1-1.62.59h0A2.49,2.49,0,0,1,1975.63,684.88Zm-10.05-10.78h0a2.5,2.5,0,0,1,0-3.54h0a2.5,2.5,0,0,1,3.53,0h0a2.51,2.51,0,0,1,0,3.54h0a2.51,2.51,0,0,1-1.79.75h0A2.53,2.53,0,0,1,1965.58,674.1Zm-11-9.84h0a2.51,2.51,0,0,1-.35-3.52h0a2.51,2.51,0,0,1,3.52-.35h0a2.51,2.51,0,0,1,.35,3.52h0a2.47,2.47,0,0,1-1.93.92h0A2.52,2.52,0,0,1,1954.57,664.26Zm-11.8-8.9a2.5,2.5,0,0,1-.62-3.48h0a2.49,2.49,0,0,1,3.48-.63h0a2.5,2.5,0,0,1,.62,3.48h0a2.49,2.49,0,0,1-2,1.07h0A2.53,2.53,0,0,1,1942.77,655.36Zm-12.45-8a2.52,2.52,0,0,1-.87-3.43h0a2.5,2.5,0,0,1,3.43-.87h0a2.51,2.51,0,0,1,.87,3.43h0a2.51,2.51,0,0,1-2.15,1.22h0A2.57,2.57,0,0,1,1930.32,647.35Zm-13-7.18a2.49,2.49,0,0,1-1.09-3.36h0a2.51,2.51,0,0,1,3.37-1.09h0a2.49,2.49,0,0,1,1.08,3.36h0a2.5,2.5,0,0,1-2.22,1.36h0A2.43,2.43,0,0,1,1917.35,640.17ZM1904,633.78a2.5,2.5,0,0,1-1.28-3.3h0a2.5,2.5,0,0,1,3.3-1.27h0a2.5,2.5,0,0,1,1.27,3.3h0A2.49,2.49,0,0,1,1905,634h0A2.54,2.54,0,0,1,1904,633.78Zm-13.74-5.69a2.49,2.49,0,0,1-1.43-3.23h0a2.49,2.49,0,0,1,3.23-1.43h0a2.49,2.49,0,0,1,1.43,3.23h0a2.49,2.49,0,0,1-2.33,1.6h0A2.39,2.39,0,0,1,1890.22,628.09Zm-14-5a2.5,2.5,0,0,1-1.58-3.16h0a2.5,2.5,0,0,1,3.17-1.58h0a2.51,2.51,0,0,1,1.57,3.17h0a2.5,2.5,0,0,1-2.37,1.7h0A2.42,2.42,0,0,1,1876.23,623.06ZM1862,618.62a2.5,2.5,0,0,1-1.71-3.09h0a2.51,2.51,0,0,1,3.1-1.71h0a2.51,2.51,0,0,1,1.71,3.1h0a2.5,2.5,0,0,1-2.41,1.8h0A2.35,2.35,0,0,1,1862,618.62Zm-14.38-3.89a2.51,2.51,0,0,1-1.82-3h0a2.5,2.5,0,0,1,3-1.81h0a2.5,2.5,0,0,1,1.81,3h0a2.49,2.49,0,0,1-2.42,1.89h0A2.54,2.54,0,0,1,1847.64,614.73Zm-14.52-3.41h0a2.49,2.49,0,0,1-1.91-3h0a2.5,2.5,0,0,1,3-1.91h0a2.5,2.5,0,0,1,1.92,3h0a2.51,2.51,0,0,1-2.44,2h0A2.48,2.48,0,0,1,1833.12,611.32Zm-14.67-3.18a2.5,2.5,0,0,1-1.89-3h0a2.49,2.49,0,0,1,3-1.89h0a2.5,2.5,0,0,1,1.89,3h0a2.51,2.51,0,0,1-2.44,2h0A2.57,2.57,0,0,1,1818.45,608.14Zm-14.64-3.43h0a2.49,2.49,0,0,1-1.84-3h0a2.49,2.49,0,0,1,3-1.84h0a2.49,2.49,0,0,1,1.84,3h0a2.51,2.51,0,0,1-2.43,1.91h0A2.46,2.46,0,0,1,1803.81,604.71Zm-14.58-3.7a2.5,2.5,0,0,1-1.78-3h0a2.5,2.5,0,0,1,3.06-1.78h0a2.51,2.51,0,0,1,1.78,3.06h0a2.51,2.51,0,0,1-2.42,1.86h0A2.35,2.35,0,0,1,1789.23,601Zm-14.5-4h0a2.48,2.48,0,0,1-1.7-3.09h0a2.5,2.5,0,0,1,3.1-1.71h0a2.51,2.51,0,0,1,1.7,3.1h0a2.5,2.5,0,0,1-2.4,1.81h0A2.43,2.43,0,0,1,1774.73,597Zm-14.4-4.42a2.48,2.48,0,0,1-1.61-3.14h0a2.49,2.49,0,0,1,3.15-1.61h0a2.5,2.5,0,0,1,1.61,3.15h0a2.52,2.52,0,0,1-2.38,1.73h0A2.27,2.27,0,0,1,1760.33,592.56Zm-14.26-4.89a2.51,2.51,0,0,1-1.5-3.21h0a2.5,2.5,0,0,1,3.21-1.49h0a2.49,2.49,0,0,1,1.49,3.2h0a2.5,2.5,0,0,1-2.35,1.65h0A2.54,2.54,0,0,1,1746.07,587.67ZM1732,582.18a2.49,2.49,0,0,1-1.34-3.27h0a2.49,2.49,0,0,1,3.27-1.34h0a2.5,2.5,0,0,1,1.35,3.27h0a2.49,2.49,0,0,1-2.31,1.53h0A2.49,2.49,0,0,1,1732,582.18ZM1718.21,576a2.51,2.51,0,0,1-1.15-3.35h0a2.5,2.5,0,0,1,3.34-1.15h0a2.51,2.51,0,0,1,1.15,3.35h0a2.49,2.49,0,0,1-2.25,1.4h0A2.48,2.48,0,0,1,1718.21,576Zm-13.38-7.18a2.5,2.5,0,0,1-.88-3.42h0a2.5,2.5,0,0,1,3.43-.88h0a2.5,2.5,0,0,1,.88,3.42h0a2.51,2.51,0,0,1-2.16,1.23h0A2.46,2.46,0,0,1,1704.83,568.78Zm-12.71-8.41a2.5,2.5,0,0,1-.51-3.5h0a2.51,2.51,0,0,1,3.5-.51h0a2.51,2.51,0,0,1,.51,3.5h0a2.49,2.49,0,0,1-2,1h0A2.45,2.45,0,0,1,1692.12,560.37Zm-11.62-10a2.5,2.5,0,0,1,0-3.54h0a2.51,2.51,0,0,1,3.54,0h0a2.5,2.5,0,0,1,0,3.53h0a2.45,2.45,0,0,1-1.76.73h0A2.49,2.49,0,0,1,1680.5,550.38Zm-9.84-11.88a2.5,2.5,0,0,1,.67-3.47h0a2.5,2.5,0,0,1,3.47.68h0a2.51,2.51,0,0,1-.67,3.47h0a2.49,2.49,0,0,1-1.4.42h0A2.48,2.48,0,0,1,1670.66,538.5Zm-7.23-13.69h0a2.5,2.5,0,0,1,1.4-3.25h0a2.5,2.5,0,0,1,3.25,1.41h0a2.51,2.51,0,0,1-1.41,3.24h0a2.47,2.47,0,0,1-.92.18h0A2.52,2.52,0,0,1,1663.43,524.81Zm-4.2-14.86a2.51,2.51,0,0,1,2-2.92h0a2.52,2.52,0,0,1,2.92,2h0a2.5,2.5,0,0,1-2,2.91h0a2.28,2.28,0,0,1-.45,0h0A2.5,2.5,0,0,1,1659.23,510Zm-2.4-15a2.49,2.49,0,0,1,2.21-2.76h0a2.5,2.5,0,0,1,2.76,2.21h0a2.5,2.5,0,0,1-2.21,2.76h0l-.28,0h0A2.5,2.5,0,0,1,1656.83,495Zm2-12.76a2.5,2.5,0,0,1-2.35-2.64h0a2.5,2.5,0,0,1,2.64-2.35h0a2.5,2.5,0,0,1,2.35,2.64h0a2.5,2.5,0,0,1-2.49,2.35h-.15Zm1.72-14.9a2.5,2.5,0,0,1-1.85-3h0a2.5,2.5,0,0,1,3-1.85h0a2.49,2.49,0,0,1,1.86,3h0a2.51,2.51,0,0,1-2.44,1.92h0A2.36,2.36,0,0,1,1660.5,467.3Zm4.38-14.33a2.5,2.5,0,0,1-1.25-3.31h0a2.5,2.5,0,0,1,3.31-1.25h0a2.5,2.5,0,0,1,1.25,3.31h0a2.51,2.51,0,0,1-2.28,1.47h0A2.48,2.48,0,0,1,1664.88,453Zm7.06-13.21a2.51,2.51,0,0,1-.58-3.49h0a2.49,2.49,0,0,1,3.48-.57h0a2.51,2.51,0,0,1,.58,3.49h0a2.51,2.51,0,0,1-2,1h0A2.46,2.46,0,0,1,1671.94,439.76Zm9.49-11.57a2.51,2.51,0,0,1,.09-3.54h0a2.49,2.49,0,0,1,3.53.1h0a2.5,2.5,0,0,1-.09,3.53h0a2.48,2.48,0,0,1-1.72.69h0A2.48,2.48,0,0,1,1681.43,428.19Zm11.43-9.67a2.5,2.5,0,0,1,.68-3.47h0a2.49,2.49,0,0,1,3.46.68h0a2.5,2.5,0,0,1-.67,3.47h0a2.5,2.5,0,0,1-1.4.43h0A2.49,2.49,0,0,1,1692.86,418.52Zm12.8-7.76a2.5,2.5,0,0,1,1.15-3.34h0a2.51,2.51,0,0,1,3.35,1.15h0a2.5,2.5,0,0,1-1.15,3.34h0a2.56,2.56,0,0,1-1.1.25h0A2.51,2.51,0,0,1,1705.66,410.76Zm13.71-6a2.5,2.5,0,0,1,1.52-3.19h0a2.49,2.49,0,0,1,3.19,1.52h0a2.5,2.5,0,0,1-1.52,3.19h0a2.43,2.43,0,0,1-.84.14h0A2.49,2.49,0,0,1,1719.37,404.72Zm14.26-4.56a2.52,2.52,0,0,1,1.81-3.05h0a2.5,2.5,0,0,1,3,1.81h0a2.5,2.5,0,0,1-1.8,3h0a2.7,2.7,0,0,1-.62.08h0A2.51,2.51,0,0,1,1733.63,400.16Zm14.61-3.34a2.5,2.5,0,0,1,2-2.89h0a2.48,2.48,0,0,1,2.89,2h0a2.49,2.49,0,0,1-2,2.9h0a3.27,3.27,0,0,1-.44,0h0A2.51,2.51,0,0,1,1748.24,396.82Zm14.81-2.3a2.49,2.49,0,0,1,2.2-2.76h0A2.5,2.5,0,0,1,1768,394h0a2.51,2.51,0,0,1-2.2,2.77h0l-.29,0h0A2.5,2.5,0,0,1,1763.05,394.52Zm14.91-1.44a2.51,2.51,0,0,1,2.34-2.65h0a2.51,2.51,0,0,1,2.65,2.34h0a2.52,2.52,0,0,1-2.35,2.66h-.15A2.51,2.51,0,0,1,1778,393.08Z"/><path class="cls-7" d="M635.58,808.66l-52.14-73a122,122,0,0,0,14-112.87,49.23,49.23,0,1,0-65-68.54,122,122,0,1,0,26.2,207.61Z"/><path class="cls-8" d="M1263.51,1160.78c-1.31-4.45-10.44,1.41-10.44,1.41l-29,20.12,1.08,17.14,22-18.59,5.71-5.25C1266.79,1165.86,1263.51,1160.78,1263.51,1160.78Z"/><polygon class="cls-9" points="1811.55 357.69 1804.83 393.05 1927.89 358.62 1811.55 357.69"/><polygon class="cls-10" points="1794.89 330.3 1811.55 357.69 1927.89 358.62 1822.06 371.44 1843.09 405.58 1940.6 357.98 1794.89 330.3"/><polygon class="cls-11" points="1822.06 371.44 1804.83 393.05 1831.05 386 1822.06 371.44"/><path class="cls-8" d="M1198.8,1213.71l9.12-38.34c2.93-12.38-7-14-7-14l-6.6,10.76c-5.63,6.64-9.88,24.34-9.88,24.34l-7.38,16c-5.5,10.57,3.13,36.48,3.13,36.48l-16,23.49c-17.55,22.95-29.19,39.62-55.93,72.38-4.69,5.75-35.81,46-40,52.14l-5.32,7.85,0,0c-.56.53-44.84,42.19-6.78,97.8l0,.05.3.25a18.23,18.23,0,0,0,27.4-5.25c33.68-60.09,65.61-120.77,92.16-178.26,5.17-11.23,17.47-33.42,27.18-50.08l2.74-4.09a9.94,9.94,0,0,1,6.11-4.16c41.41-9,35.35-38.32,35.35-38.32Z"/><path class="cls-12" d="M863,1977.72H597.52l-65.38-154.65s-44.19-93.6-28.94-174.86l0,0a150.89,150.89,0,0,1,6.78-24.84s0,0,.05-.06q1-2.84,2.21-5.63l53-99.4,78.57,12.19,173.25-58.57c-15.26,3.45,40.78,439.91,44.19,482.85Q862.2,1966.19,863,1977.72Z"/><path class="cls-13" d="M830.35,1077.5l59.27,235.31,5.9,23.47c1.88,2.8,3.71,5.51,5.55,8.16,1.38,2.1,2.8,4.13,4.14,6.12,3.21,4.64,6.28,9.08,9.3,13.29,1.5,2.07,2.91,4.13,4.37,6.13s3.06,4.21,4.55,6.24c2.68,3.64,5.33,7.12,7.93,10.49a399.58,399.58,0,0,0,52.54,56.44c18.57,16.62,41.08,34.54,72.37,59.51-38.41-56,6.78-97.91,6.78-97.91l-53.76-97.07a283.92,283.92,0,0,1-25.47-62.8c-17.8-64.87-78.69-131.73-78.69-131.73S879.93,1082,830.35,1077.5Z"/><path class="cls-14" d="M889.62,1312.81l5.9,23.47c1.88,2.8,3.71,5.51,5.55,8.16,1.38,2.06,2.76,4.13,4.14,6.12,3.21,4.64,6.28,9.08,9.3,13.29,1.5,2.07,2.91,4.13,4.37,6.13s3.06,4.21,4.55,6.24c2.68,3.64,5.33,7.12,7.93,10.49a399.58,399.58,0,0,0,52.54,56.44c-18.69-23.74-35.08-64.83-41.55-82.25,24-73.21-20.33-124.33-20.33-124.33Z"/><path class="cls-15" d="M548.7,1148.77a225.41,225.41,0,0,0,32.53,39.54c79.27,75.19,169.53,21.83,224.9-27.31a327.1,327.1,0,0,0,70.63-89.39c21.4-39.73,39.39-77.64,38.1-139.87-.77-35.94-3.55-61.75-6.38-79.22a115.22,115.22,0,0,0-40.74-70.87c-1.58-1.3-3.12-2.5-4.66-3.65-26.19-19.48-49.27-20.2-49.27-20.2-44.72-6.48-88.39,4.37-114.83,42.47-29.32,42.13-13.58,85.26-26.29,131.62-9.5,34.69-40,63.28-66,86C513.91,1099.06,548.7,1148.77,548.7,1148.77Z"/><path class="cls-16" d="M548.7,1148.77a225.41,225.41,0,0,0,32.53,39.54c44.58-16.8,86.37-53.55,86.37-53.55a97.86,97.86,0,0,1-7.68-144.48c17.66-17.9,49.81-60.79,53.27-138.62,4.12-92.61,117.7-79.32,149.89-73.66-26.19-19.48-49.27-20.2-49.27-20.2-44.72-6.48-88.39,4.37-114.83,42.47-29.32,42.13-13.58,85.26-26.29,131.62-9.5,34.69-40,63.28-66,86C513.91,1099.06,548.7,1148.77,548.7,1148.77Z"/><path class="cls-13" d="M830.36,1077.54s50.8,5.56,61.3,47l27.05,82.23s40,72,5.53,131.46l-26.51,35.35c-2.11,22.13-2.07,44.55-1.33,66.74a479.06,479.06,0,0,0,5.88,62c5.24,31.68,25.73,76.4-24.76,77.32a39,39,0,0,1-23.59-7.4,131,131,0,0,1-49-70.54Z"/><path class="cls-6" d="M830.36,1077.54s46.23,93.49,52.16,206.19a334.67,334.67,0,0,1-21.45,136.74L839,1478.77a108,108,0,0,0-7,38.21v28.43s-5,59.22-232.49,0l61.85-355.22,46.39-137.51Z"/><path class="cls-13" d="M554.17,1540.5a63.71,63.71,0,0,0,13.53,10.85,60,60,0,0,0,26.82,8.68c99.9,7.73,99.38-28.36,146.83-120.24,49-95-33.59-387.08-33.59-387.08-32.24,5.56-51.77,15.21-77.3,24.8L602.15,1229l-2.64,14.25c5.81,44.19,46.4,148-26.48,218.71C533.68,1500.05,540,1525.34,554.17,1540.5Z"/><path class="cls-17" d="M832,1019.55s-43.07,34.79-1.65,58c0,0,1.27,19.81-7.55,35.78a35.75,35.75,0,0,1-47,14.84c-18.94-9.23-55.4-32.06-68.07-75.48,0,0,31.48-24.85,34.79-54.67V928.43l89.86,90.09Z"/><path class="cls-18" d="M554,1539.4c-3.17-22.36-16-30.37,41.6-76.77s51.19-134.36,51.19-134.36l22.37-46.35c46.39-91.17-1.59-147.16-1.59-147.16L602.15,1229l-2.64,14.25c5.81,44.19,46.4,148-26.48,218.71-39.35,38.14-33,63.43-18.86,78.59C554.12,1540.17,554.07,1539.78,554,1539.4Z"/><path class="cls-17" d="M510.86,1459.44l-9-59.18-53.35,19.2L353.22,1637.2l-46.7,44.52a18.8,18.8,0,0,0-5.33,9.23l-12.63,51.84a3.58,3.58,0,0,0,3.53,4.43l3.92,0c7.75,12.88,15.88,19.56,18.16,21.29a1,1,0,0,0,1.44-.2c3.42-4.47-10.06-22.58-10.06-22.58l19.64-.08a1.9,1.9,0,0,0,1.35-3.22c-4.77-4.91-19.47-5.74-19.47-5.74l8-28.25a5.15,5.15,0,0,1,2.43-3.09L343.12,1691a2.4,2.4,0,0,1,3.58,2.15,105.3,105.3,0,0,1-6.18,32.47,4.15,4.15,0,0,0,7.26,3.38c14-16.48,24.44-67.29,26.82-79.69C407.92,1602.72,510.86,1459.44,510.86,1459.44Z"/><path class="cls-13" d="M630.45,1077.54a97.58,97.58,0,0,1,9.11,7.92c45.23,43.65,45.43,109.94,15.15,165-46.29,84.21-140.36,196.74-143.85,209,0,0-11.58-44.4-62.38-40,0,0,34-85.69,64.89-160.79S572.84,1096.37,630.45,1077.54Z"/><path class="cls-19" d="M751.94,951.62l10.82-2.93,69.65,69.83-.4,1s-43.07,34.79-1.65,58c0,0,1.27,19.81-7.55,35.78a35.72,35.72,0,0,1-30.91,18.44,31.79,31.79,0,0,0,15.79-21.66c.51-2.59-.53-9-2.36-17.26A230.7,230.7,0,0,0,769.94,1012C752.21,986.41,751.94,951.62,751.94,951.62Z"/><path class="cls-17" d="M751.94,951.62c26.51,50.81,68.48,72.9,68.48,72.9,79,38.4,93.91-123.82,74.55-177.27,0,0-9.94-46.39-81.18-9.94,0,0-51.36,26.51-58,63Z"/><ellipse class="cls-6" cx="887.66" cy="928.43" rx="21.06" ry="33.52"/><ellipse class="cls-6" cx="834.71" cy="928.43" rx="21.06" ry="33.52"/><path class="cls-17" d="M760.77,906.89s-27.57-21.53-31.93-3.31c0,0-13.06,33.13,27.58,49.7Z"/><path class="cls-6" d="M889.73,934.29a4.68,4.68,0,0,1-1.64.3l-55.62.06a4.54,4.54,0,0,1,0-9.08l55.62-.05a4.54,4.54,0,0,1,1.63,8.77Z"/><g class="cls-20"><path class="cls-21" d="M867.19,347.51l30.45,0a12.64,12.64,0,0,1,12.65,12.58l.09,82.05a12.62,12.62,0,0,1-12.61,12.6l-30.46,0Z"/><path class="cls-22" d="M724.25,363.44A15.6,15.6,0,0,1,740,347.65l37.83,0c-6.32-31.53-3.22-69.4,22-69.43s12,30.27,22.14,49.17a37.81,37.81,0,0,0,27.83,20.12l.12,107.29-84.58.1a15.78,15.78,0,0,1-12.66-25.21,15.61,15.61,0,0,1-15.79-15.76,17,17,0,0,1,3.78-10.72,15.57,15.57,0,0,1-10.13-14.5,17.1,17.1,0,0,1,3.79-10.72A15.22,15.22,0,0,1,724.25,363.44Z"/></g><polygon class="cls-23" points="1294.68 456.73 1184.85 456.73 1184.85 641.24 1318.84 641.24 1318.84 480.89 1294.68 456.73"/><rect class="cls-24" x="603.92" y="22.06" width="176.33" height="109.33"/><circle class="cls-6" cx="507.13" cy="642.17" r="122.04"/><polygon class="cls-6" points="659.4 784.9 592.39 691.08 556.64 722.35 659.4 784.9"/><circle class="cls-2" cx="573.46" cy="642.17" r="16.03"/><circle class="cls-2" cx="507.13" cy="642.17" r="16.03"/><circle class="cls-2" cx="440.8" cy="642.17" r="16.03"/><path class="cls-25" d="M1173.94,217.62a38.78,38.78,0,0,0-28.13-12.2,38.34,38.34,0,0,0-25.26,9.46,38.49,38.49,0,0,0-53.41,2.76,43,43,0,0,0-7.51,47.28l0,.07a152.31,152.31,0,0,0,16.15,20.2l40.81,43a5.43,5.43,0,0,0,7.85,0L1174,276.08a41.15,41.15,0,0,0,7.51-11.16l3.34-10.82A42.7,42.7,0,0,0,1173.94,217.62Z"/><path class="cls-26" d="M1509.05,756a31.45,31.45,0,0,0-22.77-9.87,31.06,31.06,0,0,0-20.45,7.65,31.17,31.17,0,0,0-43.24,2.24,34.81,34.81,0,0,0-6.08,38.28l0,.07a121.89,121.89,0,0,0,13,16.31l33.06,34.81a4.39,4.39,0,0,0,6.35,0l40.06-42.16a33.2,33.2,0,0,0,6.08-9l2.71-8.76A34.59,34.59,0,0,0,1509.05,756Z"/><circle class="cls-11" cx="598.9" cy="555.18" r="49.24"/><path class="cls-6" d="M594,571.5l14.94-14.9c3-3.29,5-6.52,5-11.57,0-7-5.39-14.47-15.36-14.47a14.7,14.7,0,0,0-15.11,14.91v1.78h8.43v-1.78a6.23,6.23,0,0,1,6.55-6.48c4,0,6.61,2.42,6.61,6.16,0,2.26-.9,4.13-3.09,6.46L583.53,570.7v9.1h30.79v-8.3Z"/><path class="cls-27" d="M1249.12,1091.19v5.89l-54.67.4a10.2,10.2,0,0,0-9.57,8l-26,131.48-7.05.66s0,11.11,12.81,11.11h59.94a10.2,10.2,0,0,0,9.58-8l26.71-135.22C1263.17,1091.73,1249.12,1091.19,1249.12,1091.19Z"/><path class="cls-6" d="M1227.73,1234.31a10.18,10.18,0,0,1-9.57,8h-59.94c-4.43,0-7.34-3.59-6.48-8l26.72-135.22a10.18,10.18,0,0,1,9.57-8H1248c4.43,0,7.33,3.59,6.48,8Z"/><path class="cls-6" d="M838.45,937a4.48,4.48,0,0,1-1.65-.22l-80.72-26.26a4.53,4.53,0,1,1,2.82-8.62l80.71,26.25a4.54,4.54,0,0,1-1.16,8.85Z"/><path class="cls-28" d="M815.15,824.07l-45,16.17c-.93-6.33-1.73-10.18-1.73-10.18L754,869.65v24.8l-14.88-3.19,1.42,5s12.85,7.85,12.85,29.26l.61,16.56c13.53-13.69,18-36.52,18.8-58,9.76,1.16,23.51-.41,28-16.82,7.19-26.39,24-36,24-36Z"/><path class="cls-8" d="M1250.73,1197.11c-4-10.17-12.64-23.91-22.41-14.79-10.16,9.49-12.25,24-8.49,36.86,1.71,5.83,14.64,31,23.41,21.77,9.38-9.93,12.61-24.26,9.57-37.4A48.37,48.37,0,0,0,1250.73,1197.11Z"/><path class="cls-8" d="M1174.35,1168.57l.8-1.08c14.24-15.19,9-20.53,9-20.53-2.69-5.09-10,2.61-10,2.61l-3.5,3.8-18.13,19.68s-15.93,18.83-7.63,35.18l24.5-33v.2Z"/><path class="cls-8" d="M1163.31,1175.26s6.42,18.91-6.78,35.68l-3.21-14.27Z"/><polygon class="cls-8" points="1144.91 1208.23 1153.32 1226.46 1156.53 1210.94 1154.93 1190.07 1144.91 1208.23"/><rect class="cls-29" x="857.95" y="576.59" width="181.98" height="134.55"/><path class="cls-30" d="M1335,1004.42h130.22a26,26,0,0,1,26,26v84.65a26,26,0,0,1-26,26H1335a26,26,0,0,1-26-26v-84.65A26,26,0,0,1,1335,1004.42Z"/><path class="cls-31" d="M1059.52,918.63a64.23,64.23,0,1,0,64.23,64.23A64.23,64.23,0,0,0,1059.52,918.63Z"/><rect class="cls-32" x="628.64" width="176.33" height="109.33"/><polygon class="cls-33" points="628.64 109.33 716.8 40.92 804.97 109.33 628.64 109.33"/><path class="cls-34" d="M628.64,0l79.58,56a14.93,14.93,0,0,0,17.17,0L805,0Z"/><path class="cls-35" d="M886.23,322.87l30.45,0a12.65,12.65,0,0,1,12.65,12.58l.09,82a12.64,12.64,0,0,1-12.62,12.61l-30.45,0Z"/><path class="cls-35" d="M743.29,338.8A15.6,15.6,0,0,1,759,323l37.83-.05c-6.32-31.53-3.22-69.4,22-69.43s12,30.27,22.14,49.17a37.81,37.81,0,0,0,27.83,20.12l.12,107.3-84.58.09A15.78,15.78,0,0,1,771.73,405a15.61,15.61,0,0,1-15.79-15.76,17.06,17.06,0,0,1,3.78-10.72A15.56,15.56,0,0,1,749.59,364a17.09,17.09,0,0,1,3.78-10.72A15.22,15.22,0,0,1,743.29,338.8Z"/><rect class="cls-6" x="879.64" y="552.07" width="181.98" height="134.55"/><rect class="cls-36" x="894.32" y="566.75" width="152.61" height="105.18"/><polygon class="cls-6" points="1013.23 671.93 894.95 671.93 958.03 604.9 996.31 651.37 1013.23 671.93"/><polygon class="cls-6" points="1046.93 670.66 1046.93 671.93 989.47 671.93 989.47 659.39 996.31 651.37 1014.75 629.69 1046.93 670.66"/><circle class="cls-11" cx="995.88" cy="599.74" r="17.68" transform="translate(244.36 1486.7) rotate(-80.78)"/><path class="cls-11" d="M1184.62,193.61a38.87,38.87,0,0,0-28.13-12.2,38.34,38.34,0,0,0-25.26,9.46,38.5,38.5,0,0,0-53.41,2.76,43,43,0,0,0-7.51,47.29l0,.06a151,151,0,0,0,16.14,20.2l40.82,43a5.41,5.41,0,0,0,7.84,0l49.5-52.07a41.43,41.43,0,0,0,7.5-11.16l3.35-10.82A42.76,42.76,0,0,0,1184.62,193.61Z"/><path class="cls-37" d="M1079.85,895.54a64.23,64.23,0,1,0,64.23,64.23A64.22,64.22,0,0,0,1079.85,895.54Zm-25.16,39.35a10.31,10.31,0,1,1-10.3,10.31A10.32,10.32,0,0,1,1054.69,934.89Zm25.16,67A36.59,36.59,0,0,1,1046,979.11c24.24-9.08,41.23-8.76,67.66,0A36.61,36.61,0,0,1,1079.85,1001.85ZM1105,955.5a10.31,10.31,0,1,1,10.3-10.3A10.3,10.3,0,0,1,1105,955.5Z"/><path class="cls-33" d="M1518.73,732.68a31.44,31.44,0,0,0-22.77-9.87,31,31,0,0,0-20.44,7.65,31.18,31.18,0,0,0-43.25,2.24A34.81,34.81,0,0,0,1426.2,771l0,.06a122.87,122.87,0,0,0,13,16.34c11.61,12.21,33,34.79,33,34.79a4.39,4.39,0,0,0,6.35,0L1518.76,780a33.39,33.39,0,0,0,6.07-9l2.71-8.76A34.56,34.56,0,0,0,1518.73,732.68Z"/><rect class="cls-11" x="1333.84" y="988.05" width="182.31" height="136.73" rx="26.04"/><polygon class="cls-6" points="1446.25 1086.26 1394.56 1056.41 1446.25 1026.57 1446.25 1086.26"/><polygon class="cls-6" points="1317.4 434.14 1207.57 434.14 1207.57 618.65 1341.56 618.65 1341.56 458.31 1317.4 434.14"/><polygon class="cls-36" points="1317.4 458.31 1341.56 458.31 1317.4 434.14 1317.4 458.31"/><rect class="cls-36" x="1231.73" y="491.25" width="87.86" height="13.18"/><rect class="cls-36" x="1231.73" y="515.42" width="87.86" height="13.18"/><rect class="cls-36" x="1231.73" y="539.58" width="61.5" height="13.18"/><rect class="cls-36" x="1231.73" y="563.74" width="74.68" height="13.18"/></g></g></g></svg>